<?xml version="1.0" standalone="no"?>
<!DOCTYPE svg PUBLIC "-//W3C//DTD SVG 1.1//EN" "http://www.w3.org/Graphics/SVG/1.1/DTD/svg11.dtd" >
<svg>
<metadata>
Created by FontForge 20090914 at Fri Oct  7 11:16:37 2016
 By www-data
251 Dutch Design: Albert-Jan Pool, 1995. Published by FontShop International FontFont release 15
</metadata>
<defs>
<font id="DIN-Black" horiz-adv-x="1139" >
  <font-face 
    font-family="DIN-Black"
    font-weight="400"
    font-stretch="normal"
    units-per-em="2048"
    panose-1="2 11 5 0 0 0 0 0 0 0"
    ascent="1667"
    descent="-381"
    x-height="1102"
    cap-height="1458"
    bbox="-250 -410 2425 2112"
    underline-thickness="108"
    underline-position="-78"
    unicode-range="U+0001-U+F002"
  />
<missing-glyph horiz-adv-x="1536" 
d="M256 0v1280h1024v-1280h-1024zM1247 33v1214h-958v-1214h958z" />
    <glyph glyph-name=".notdef" horiz-adv-x="1536" 
d="M256 0v1280h1024v-1280h-1024zM1247 33v1214h-958v-1214h958z" />
    <glyph glyph-name="Eth" horiz-adv-x="1391" 
d="M1290 729v-119.001c0 -105.333 -9.5 -193.833 -28.5 -265.5s-59.833 -138.834 -122.5 -201.501c-48.667 -48.667 -107 -84.667 -175 -108s-141 -35 -219 -35h-540v600h-133v274h133v584h540c78 0 151 -11.667 219 -35s126.333 -59.333 175 -108
c62.667 -61.333 103.5 -128.166 122.5 -200.499s28.5 -161.166 28.5 -266.499v-119zM932 728.999c0 121.333 -2.66699 201.333 -8 240s-15.666 68 -30.999 88c-36.667 54.667 -94 82 -172 82h-158v-265h185v-274h-185v-281h158c78 0 135.333 27.333 172 82
c15.333 21.333 25.666 50.833 30.999 88.5s8 117.5 8 239.5z" />
    <glyph glyph-name="eth" horiz-adv-x="1126" 
d="M1022 530c0 -104.667 -8.50098 -186.835 -25.501 -246.502s-47.5 -113.167 -91.5 -160.5c-83.333 -90 -197.333 -135 -342 -135c-143.333 0 -257.333 45 -342 135c-44 47.333 -74.5 100.833 -91.5 160.5s-25.5 141.834 -25.5 246.501s8.5 187 25.5 247
s47.5 113.667 91.5 161c37.333 40 84.333 72 141 96c50 22.667 102.667 35 158 37l-41 82h-231v233h117l-46 95h361l45 -95h199v-233h-84l53 -117c34.667 -75.333 60.334 -135.5 77.001 -180.5s29.5 -93.167 38.5 -144.5s13.5 -111.666 13.5 -180.999zM685.999 529.999
c0 58.667 -2.83203 104.333 -8.49902 137s-17.167 57.334 -34.5 74.001c-18 19.333 -44.667 29 -80 29c-34 0 -60.667 -9.66699 -80 -29c-17.333 -17.333 -28.833 -42.166 -34.5 -74.499s-8.5 -77.833 -8.5 -136.5c0 -42 1 -74.667 3 -98s6 -44.833 12 -64.5
s15.333 -35.834 28 -48.501c20 -18.667 46.667 -28 80 -28c34.667 0 61.167 9.16699 79.5 27.5s30.166 43.666 35.499 75.999s8 77.5 8 135.5z" />
    <glyph glyph-name="Lslash" horiz-adv-x="1227" 
d="M1165 0h-970v444l-123 -77v299l123 77v715h358v-489l231 145v-297l-231 -145v-353h612v-319z" />
    <glyph glyph-name="lslash" horiz-adv-x="713" 
d="M672 0l-178.001 0.000976562c-76.667 0 -140.667 15.833 -192 47.5s-89.166 72.667 -113.499 123s-36.5 102.166 -36.5 155.499v245l-101 -61v281l101 61v606h335v-405l101 61v-280l-101 -62v-422c0 -44.667 22.667 -67 68 -67h117v-283z" />
    <glyph glyph-name="Scaron" horiz-adv-x="1214" 
d="M1126 446c0 -95.333 -25.168 -177.67 -75.501 -247.003s-118.333 -121.833 -204 -157.5s-180.167 -53.5 -283.5 -53.5c-120.667 0 -225.667 14.333 -315 43s-168.666 78.334 -237.999 149.001l230 230c36 -36 83.333 -62.167 142 -78.5s119.667 -24.5 183 -24.5
c139.333 0 209 43.667 209 131c0 37.333 -9.66699 66 -29 86s-51.333 33 -96 39l-176 25c-129.333 18 -227 61 -293 129c-66.667 68.667 -100 166.334 -100 293.001c0 88.667 21.5 167.834 64.5 237.501s104.667 124.167 185 163.5s174.5 59 282.5 59
c107.333 0 201.166 -13.833 281.499 -41.5s150.5 -71.834 210.5 -132.501l-225 -225c-37.333 37.333 -77.666 61 -120.999 71s-95.333 15 -156 15c-57.333 0 -101 -13.667 -131 -41s-45 -58.666 -45 -93.999c0 -26 9.66699 -48.667 29 -68c22.667 -22.667 56 -37 100 -43
l176 -24c128 -18.667 223.667 -59 287 -121c38 -36.667 65.5 -81.167 82.5 -133.5s25.5 -114.5 25.5 -186.5zM1016 1968l-279 -367h-258l-279 367h246l162 -170l162 170h246z" />
    <glyph glyph-name="scaron" horiz-adv-x="1032" 
d="M977 360c0 -83.333 -21.3301 -152.833 -63.9971 -208.5s-100 -96.834 -172 -123.501s-152.333 -40 -241 -40c-68 0 -127.167 3.16699 -177.5 9.5s-101.333 20.833 -153 43.5s-101.5 58 -149.5 106l218 218c61.333 -62 150.666 -93 267.999 -93
c32.667 0 64.667 5.66699 96 17s47 29.666 47 54.999c0 42 -26.667 65.333 -80 70l-170 16c-64 6 -120.167 20.833 -168.5 44.5s-85.5 58 -111.5 103s-39 102.5 -39 172.5c0 58 12.167 110.333 36.5 157s56.833 85 97.5 115s87.167 52.833 139.5 68.5
s107.166 23.5 164.499 23.5c98 0 182 -9.66699 252 -29s130.667 -54.666 182 -105.999l-207 -207c-44 44 -121.667 66 -233 66c-36.667 0 -64 -6.66699 -82 -20s-27 -28 -27 -44c0 -35.333 24 -55.666 72 -60.999l170 -17c75.333 -6.66699 137.666 -25.167 186.999 -55.5
s85.833 -69.5 109.5 -117.5s35.5 -102.333 35.5 -163zM926.003 1616l-279 -367h-258l-279 367h246l162 -170l162 170h246z" />
    <glyph glyph-name="Yacute" horiz-adv-x="1239" 
d="M1239 1458l-440 -864v-594h-359v594l-440 864h391l230 -524l227 524h391zM944 1970l-242 -369h-203l101 369h344z" />
    <glyph glyph-name="yacute" horiz-adv-x="1053" 
d="M1069 1102l-457.002 -1233c-21.333 -61.333 -50 -109.666 -86 -144.999c-57.333 -62 -139.666 -93 -246.999 -93h-127v303h71c31.333 0 55.333 5.66699 72 17s30.334 33 41.001 65l31 93l-367 993h352l187 -572l178 572h352zM851.998 1618l-242 -369h-203l101 369h344z
" />
    <glyph glyph-name="Thorn" horiz-adv-x="1284" 
d="M1223 737c0 -82 -19.5 -158.667 -58.5 -230s-95.833 -129 -170.5 -173s-164.334 -66 -269.001 -66h-219v-268h-359v1458h359v-252h219c104.667 0 194.334 -21.833 269.001 -65.5s131.5 -101.167 170.5 -172.5s58.5 -148.333 58.5 -231zM864 737
c0 26 -6.16699 50.3311 -18.5 72.998s-30.333 40.834 -54 54.501s-51.167 20.5 -82.5 20.5h-203v-295h203c31.333 0 58.833 6.83301 82.5 20.5s41.667 31.834 54 54.501s18.5 46.667 18.5 72z" />
    <glyph glyph-name="thorn" horiz-adv-x="1169" 
d="M1077 551v-51c0 -98 -6 -180.167 -18 -246.5s-40 -121.5 -84 -165.5c-68 -66.667 -156.667 -100 -266 -100c-103.333 0 -185.333 30.667 -246 92v-436h-336v1814h336v-436c31.333 31.333 66.833 54.5 106.5 69.5s86.167 22.5 139.5 22.5c109.333 0 198 -33.333 266 -100
c44 -44 72 -99.167 84 -165.5s18 -148.5 18 -246.5v-51zM741 551c0 58 -3.16797 105.833 -9.50098 143.5s-19.333 66.5 -39 86.5s-49.834 30 -90.501 30c-57.333 0 -94.833 -20.667 -112.5 -62s-26.5 -107.333 -26.5 -198c0 -58 3.16699 -105.833 9.5 -143.5
s19.333 -66.5 39 -86.5s49.834 -30 90.501 -30s70.834 10 90.501 30s32.667 48.833 39 86.5s9.5 85.5 9.5 143.5z" />
    <glyph glyph-name="Zcaron" horiz-adv-x="1112" 
d="M1051 0h-990v279l560 860h-535v319h965v-278l-562 -861h562v-319zM967 1968l-279 -367h-258l-279 367h246l162 -170l162 170h246z" />
    <glyph glyph-name="zcaron" horiz-adv-x="1001" 
d="M920 0h-859v248l420 551h-395v303h834v-248l-428 -551h428v-303zM910 1616l-279 -367h-258l-279 367h246l162 -170l162 170h246z" />
    <glyph glyph-name="onehalf" horiz-adv-x="1851" 
d="M1769 0l-587.002 -0.000976562v213l309 315c18 18 30 32.5 36 43.5s9 23.833 9 38.5c0 18 -5.16699 32.5 -15.5 43.5s-24.833 16.5 -43.5 16.5c-38.667 0 -58 -20.667 -58 -62h-237c0 58.667 13.333 108.834 40 150.501s62.334 72.834 107.001 93.501s94 31 148 31
c86 0 156.167 -24.5 210.5 -73.5s81.5 -115.5 81.5 -199.5c0 -45.333 -9.16699 -83.833 -27.5 -115.5s-49.166 -68.834 -92.499 -111.501l-179 -170h299v-213zM1350 1458l-695 -1458h-258l695 1458h258zM503.998 583.999h-238v608l-194 -168v266l194 168h238v-874z" />
    <glyph glyph-name="onequarter" horiz-adv-x="1784" 
d="M1702 109h-53v-109h-224v109h-366v225l282 540h261l-285 -540h108v76h224v-76h53v-225zM1350 1458l-695 -1458h-258l695 1458h258zM504 584h-238v608l-194 -168v266l194 168h238v-874z" />
    <glyph glyph-name="onesuperior" horiz-adv-x="637" 
d="M504 584h-238v608l-194 -168v266l194 168h238v-874z" />
    <glyph glyph-name="threequarters" horiz-adv-x="1825" 
d="M1743 109h-53v-109h-224v109h-366v225l282 540h260l-284 -540h108v76h224v-76h53v-225zM1391 1458l-695 -1458h-258l695 1458h258zM686 852c0 -60.667 -13.834 -111.831 -41.501 -153.498s-65 -72.667 -112 -93s-96.833 -30.5 -149.5 -30.5
c-51.333 0 -100.166 9.83301 -146.499 29.5s-83.666 51.167 -111.999 94.5s-42.5 97.666 -42.5 162.999h235c0 -49.333 22 -74 66 -74c20.667 0 36.834 6.16699 48.501 18.5s17.5 30.166 17.5 53.499c0 18 -6.5 34.167 -19.5 48.5s-29.167 21.5 -48.5 21.5h-33v203h33
c20 0 35.167 6.5 45.5 19.5s15.5 26.167 15.5 39.5c0 20 -5.5 35.167 -16.5 45.5s-24.5 15.5 -40.5 15.5s-29.5 -5.5 -40.5 -16.5s-16.5 -26.5 -16.5 -46.5h-238c0 54 13.167 102.333 39.5 145s62.166 75.167 107.499 97.5s94.666 33.5 147.999 33.5
c84 0 153.833 -24.833 209.5 -74.5s83.5 -113.5 83.5 -191.5c0 -42 -7.5 -75 -22.5 -99s-34.833 -45.667 -59.5 -65c26 -23.333 47.5 -48.833 64.5 -76.5s25.5 -63.5 25.5 -107.5z" />
    <glyph glyph-name="threesuperior" horiz-adv-x="768" 
d="M686 852c0 -60.667 -13.834 -111.831 -41.501 -153.498s-65 -72.667 -112 -93s-96.833 -30.5 -149.5 -30.5c-51.333 0 -100.166 9.83301 -146.499 29.5s-83.666 51.167 -111.999 94.5s-42.5 97.666 -42.5 162.999h235c0 -49.333 22 -74 66 -74
c20.667 0 36.834 6.16699 48.501 18.5s17.5 30.166 17.5 53.499c0 18 -6.5 34.167 -19.5 48.5s-29.167 21.5 -48.5 21.5h-33v203h33c20 0 35.167 6.5 45.5 19.5s15.5 26.167 15.5 39.5c0 20 -5.5 35.167 -16.5 45.5s-24.5 15.5 -40.5 15.5s-29.5 -5.5 -40.5 -16.5
s-16.5 -26.5 -16.5 -46.5h-238c0 54 13.167 102.333 39.5 145s62.166 75.167 107.499 97.5s94.666 33.5 147.999 33.5c84 0 153.833 -24.833 209.5 -74.5s83.5 -113.5 83.5 -191.5c0 -42 -7.5 -75 -22.5 -99s-34.833 -45.667 -59.5 -65c26 -23.333 47.5 -48.833 64.5 -76.5
s25.5 -63.5 25.5 -107.5z" />
    <glyph glyph-name="twosuperior" horiz-adv-x="752" 
d="M670 584h-588.001v213l309 315c18 18 30 32.167 36 42.5s9 23.5 9 39.5c0 18 -5.33301 32.333 -16 43s-25 16 -43 16c-38.667 0 -58 -20.333 -58 -61h-237c0 59.333 13.333 109.5 40 150.5s62.334 71.833 107.001 92.5s94 31 148 31c86 0 156.333 -24.167 211 -72.5
s82 -114.833 82 -199.5c0 -45.333 -9.33301 -84 -28 -116s-49.667 -69 -93 -111l-178 -170h299v-213z" />
    <glyph glyph-name="brokenbar" horiz-adv-x="745" 
d="M541 893h-336v717h336v-717zM541 -152h-336v717h336v-717z" />
    <glyph glyph-name="minus" 
d="M1038 446h-938v316h938v-316z" />
    <glyph glyph-name="multiply" 
d="M1059 330l-213 -213l-277 276l-274 -276l-215 213l278 274l-278 277l213 213l274 -277l277 277l215 -213l-279 -277z" />
    <glyph glyph-name="space" unicode=" " horiz-adv-x="455" 
 />
    <glyph glyph-name="exclam" unicode="!" horiz-adv-x="750" 
d="M627 1458l-90 -973h-242l-90 973h422zM588 0h-344v330h344v-330z" />
    <glyph glyph-name="quotedbl" unicode="&#x22;" horiz-adv-x="999" 
d="M883 979h-301v479h301v-479zM418 979h-301v479h301v-479z" />
    <glyph glyph-name="numbersign" unicode="#" horiz-adv-x="1460" 
d="M1364 844h-170l-27 -180h119v-318h-170l-55 -346h-356l55 346h-185l-55 -346h-356l55 346h-119v318h170l27 180h-119v317h170l49 314h357l-49 -314h184l49 314h356l-49 -314h119v-317zM838 844h-185l-26 -180h184z" />
    <glyph glyph-name="dollar" unicode="$" horiz-adv-x="1296" 
d="M1208 446c0 -123.333 -40.333 -223.501 -121 -300.501s-186.334 -126.167 -317.001 -147.5v-231h-258v221c-107.333 3.33301 -201.5 19.5 -282.5 48.5s-154.167 76.833 -219.5 143.5l230 230c65.333 -66 169.666 -100.333 312.999 -103v271l-80 10
c-127.333 16 -225 59 -293 129c-66.667 68.667 -100 166.334 -100 293.001c0 77.333 17.333 149 52 215s84.667 119.667 150 161s142 67.333 230 78v187h258v-183c172.667 -10 311.334 -67.333 416.001 -172l-225 -225c-49.333 49.333 -126.666 77.333 -231.999 84v-256
l84 -12c128 -18.667 223.667 -59 287 -121c38 -36.667 65.5 -81.167 82.5 -133.5s25.5 -114.5 25.5 -186.5zM553 910.999l-0.000976562 242.001c-42.667 -7.33301 -74.5 -23.333 -95.5 -48s-31.5 -52.334 -31.5 -83.001c0 -26 9.66699 -48.667 29 -68
c22.667 -22.667 55.334 -37 98.001 -43zM855.999 438c0 38.667 -9.66602 67.332 -28.999 85.999c-18.667 20.667 -51.334 33.667 -98.001 39v-250c84.667 16.667 127 58.334 127 125.001z" />
    <glyph glyph-name="percent" unicode="%" horiz-adv-x="1755" 
d="M1663 272c0 -62 -14 -114.332 -42 -156.999s-65.667 -74.5 -113 -95.5s-98.666 -31.5 -153.999 -31.5s-106.666 10.333 -153.999 31s-85.166 52.5 -113.499 95.5s-42.5 95.5 -42.5 157.5v195c0 62.667 14.167 115.5 42.5 158.5s66.166 74.833 113.499 95.5
s98.666 31 153.999 31s106.666 -10.5 153.999 -31.5s85 -52.833 113 -95.5s42 -95.334 42 -158.001v-195zM1354 1458l-695 -1458h-258l695 1458h258zM711 991.001c0 -62 -14.167 -114.5 -42.5 -157.5s-66.166 -74.833 -113.499 -95.5s-98.666 -31 -153.999 -31
c-54.667 0 -105.667 10.333 -153 31s-85.166 52.5 -113.499 95.5s-42.5 95.5 -42.5 157.5v195c0 62 14.167 114.5 42.5 157.5s66.166 74.833 113.499 95.5s98.333 31 153 31c55.333 0 106.666 -10.333 153.999 -31s85.166 -52.5 113.499 -95.5s42.5 -95.5 42.5 -157.5v-195z
M1425 281.001v178c0 53.333 -23.667 80 -71 80c-48 0 -72 -26.667 -72 -80v-178c0 -53.333 24 -80 72 -80c47.333 0 71 26.667 71 80zM473 999.001v179c0 52.667 -24 79 -72 79c-47.333 0 -71 -26.333 -71 -79v-179c0 -52.667 23.667 -79 71 -79c48 0 72 26.333 72 79z" />
    <glyph glyph-name="ampersand" unicode="&#x26;" horiz-adv-x="1454" 
d="M1454 0l-422 0.000976562l-92 106c-55.333 -40 -105.333 -69.667 -150 -89s-110 -29 -196 -29c-166.667 0 -290.667 39.333 -372 118s-122 190.667 -122 336c0 76 22.5 145 67.5 207s99.833 114.667 164.5 158c-26 29.333 -48.167 56.666 -66.5 81.999
s-34.666 56.833 -48.999 94.5s-21.5 79.167 -21.5 124.5c0 54.667 9.33301 104.167 28 148.5s46.167 82.5 82.5 114.5s81.166 56.5 134.499 73.5s114.333 25.5 183 25.5c64.667 0 122 -8.66699 172 -26s92.667 -42.333 128 -75s62 -71.334 80 -116.001
s27 -94.334 27 -149.001c0 -53.333 -11.833 -99.166 -35.5 -137.499s-59.5 -75.833 -107.5 -112.5c-4.66699 -4 -12.667 -10.167 -24 -18.5l-35 -26.5c-12 -9.33301 -26.667 -19.666 -44 -30.999l172 -198c18.667 21.333 33.834 52 45.501 92s19.167 79.667 22.5 119h315
c-14.667 -196.667 -71.334 -349 -170.001 -457zM715 1102c0 25.333 -7.66797 46 -23.001 62s-38.333 24 -69 24c-62 0 -93 -29.333 -93 -88c0 -12.667 4.66699 -26.667 14 -42s19.166 -28.833 29.499 -40.5s21.833 -23.834 34.5 -36.501
c2.66699 1.33301 10.334 6.5 23.001 15.5s21.334 15.5 26.001 19.5c38.667 26.667 58 55.334 58 86.001zM736.999 344.001l-227 260c-32 -21.333 -54.333 -44.5 -67 -69.5s-19 -55.167 -19 -90.5c0 -44 17 -80.5 51 -109.5s73.667 -43.5 119 -43.5
c34.667 0 62 4.33301 82 13s40.333 22 61 40z" />
    <glyph glyph-name="quotesingle" unicode="'" horiz-adv-x="537" 
d="M420 979h-303v479h303v-479z" />
    <glyph glyph-name="parenleft" unicode="(" horiz-adv-x="733" 
d="M633 33l-224.999 -226c-60 60 -102.833 104.167 -128.5 132.5s-49.834 61.5 -72.501 99.5c-40 66.667 -60 165 -60 295v790c0 130 20 228.333 60 295c24 40.667 48.5 74.5 73.5 101.5s67.5 70.5 127.5 130.5l225 -226l-71 -72c-11.333 -12 -26.666 -33.667 -45.999 -65
c-22 -38.667 -33 -97.334 -33 -176.001v-766c0 -78.667 11 -137.334 33 -176.001c12 -19.333 23.667 -36.166 35 -50.499s24.166 -28.666 38.499 -42.999z" />
    <glyph glyph-name="parenright" unicode=")" horiz-adv-x="733" 
d="M586 334c0 -64 -3.83301 -119.169 -11.5 -165.502s-23.834 -89.5 -48.501 -129.5c-20 -35.333 -44.333 -68.833 -73 -100.5s-71 -75.5 -127 -131.5l-226 226l44 43c14 14 26 27.167 36 39.5s22.333 30.5 37 54.5c22 36.667 33 95.334 33 176.001v766
c0 80.667 -11 139.334 -33 176.001c-16.667 28.667 -32.5 51.167 -47.5 67.5s-38.167 39.5 -69.5 69.5l226 226c56 -56 97.833 -99.167 125.5 -129.5s52.5 -64.5 74.5 -102.5c24.667 -40 40.834 -83.167 48.501 -129.5s11.5 -101.5 11.5 -165.5v-790z" />
    <glyph glyph-name="asterisk" unicode="*" horiz-adv-x="1036" 
d="M940 928l-115 -199l-202 131l10 -242h-230l11 242l-203 -131l-115 199l215 110l-215 111l115 199l203 -131l-11 241h230l-10 -241l202 131l115 -199l-215 -111z" />
    <glyph glyph-name="plus" unicode="+" 
d="M1038 422h-311v-311h-315v311h-312v315h312v312h315v-312h311v-315z" />
    <glyph glyph-name="comma" unicode="," horiz-adv-x="590" 
d="M473 -102l-356 -263v721h356v-458z" />
    <glyph glyph-name="hyphen" unicode="-" horiz-adv-x="872" 
d="M772 446h-672v316h672v-316z" />
    <glyph glyph-name="period" unicode="." horiz-adv-x="602" 
d="M485 0h-368v369h368v-369z" />
    <glyph glyph-name="slash" unicode="/" horiz-adv-x="883" 
d="M895 1610l-584 -1762h-311l584 1762h311z" />
    <glyph glyph-name="zero" unicode="0" 
d="M1038 442c0 -72.667 -12.668 -137.83 -38.001 -195.497s-59.833 -105.334 -103.5 -143.001s-94 -66.334 -151 -86.001s-115.833 -29.5 -176.5 -29.5c-82 0 -159 17.333 -231 52s-129.667 86.167 -173 154.5s-65 150.833 -65 247.5v574c0 74 12.833 139.167 38.5 195.5
s60.667 104 105 143s94.333 68 150 87s114.167 28.5 175.5 28.5c62.667 0 121.834 -9.5 177.501 -28.5s105.667 -47.833 150 -86.5s79 -86.334 104 -143.001s37.5 -122 37.5 -196v-574zM701.999 440.004v576c0 49.333 -12.667 86.833 -38 112.5s-57 38.5 -95 38.5
s-69.667 -13.167 -95 -39.5s-38 -63.5 -38 -111.5v-576c0 -47.333 12.667 -84 38 -110s57 -39 95 -39s69.667 12.667 95 38s38 62.333 38 111z" />
    <glyph glyph-name="one" unicode="1" 
d="M831 0h-335v1100l-312 -271v359l312 270h335v-1458z" />
    <glyph glyph-name="two" unicode="2" 
d="M1047 0l-937.999 0.000976562v303l528 574c27.333 29.333 46.5 55 57.5 77s16.5 48 16.5 78c0 41.333 -11.333 74.166 -34 98.499s-55 36.5 -97 36.5c-37.333 0 -69.333 -10.667 -96 -32s-40 -57.666 -40 -108.999h-335c0 91.333 21 170.666 63 237.999
s98.667 118.5 170 153.5s150.666 52.5 237.999 52.5c90.667 0 171.167 -17.667 241.5 -53s125.5 -86.5 165.5 -153.5s60 -144.833 60 -233.5c0 -71.333 -13.667 -131.5 -41 -180.5s-74 -108.167 -140 -177.5l-348 -369h529v-303z" />
    <glyph glyph-name="three" unicode="3" 
d="M1057 436c0 -144.667 -46.499 -255.5 -139.499 -332.5s-208.5 -115.5 -346.5 -115.5c-84.667 0 -163.667 15.833 -237 47.5s-133 82 -179 151s-69 154.833 -69 257.5h336c0 -49.333 14 -87.166 42 -113.499s63.667 -39.5 107 -39.5c45.333 0 81.666 13 108.999 39
s41 64.667 41 116c0 45.333 -14.667 82.333 -44 111s-66.666 43 -111.999 43h-47v291h47c31.333 0 57.5 6.5 78.5 19.5s36.5 29.833 46.5 50.5s15 43 15 67c0 44 -13 78.167 -39 102.5s-57.667 36.5 -95 36.5s-68.833 -12.333 -94.5 -37s-38.5 -58 -38.5 -100h-336
c0 68 11.833 129.167 35.5 183.5s57.167 100.666 100.5 138.999s93.166 67.5 149.499 87.5s117.5 30 183.5 30c89.333 0 169.5 -18.333 240.5 -55s126.833 -88.167 167.5 -154.5s61 -140.5 61 -222.5c0 -125.333 -50.333 -220 -151 -284c50 -34.667 90.5 -76.5 121.5 -125.5
s46.5 -113.167 46.5 -192.5z" />
    <glyph glyph-name="four" unicode="4" 
d="M1085 193h-108v-193h-320v193h-604v319l484 946h368l-483 -946h235v193h320v-193h108v-319z" />
    <glyph glyph-name="five" unicode="5" 
d="M1049 498c0 -61.333 -3.83594 -113.664 -11.5029 -156.997s-21.334 -83.166 -41.001 -119.499s-47.5 -72.5 -83.5 -108.5c-34 -35.333 -79.833 -65 -137.5 -89s-124.5 -36 -200.5 -36c-74.667 0 -142 12.167 -202 36.5s-108 54.5 -144 90.5
c-45.333 45.333 -76.166 93.166 -92.499 143.499s-27.833 112.166 -34.5 185.499h336c12 -102 57.667 -153 137 -153c38.667 0 70.334 12.333 95.001 37c28.667 28.667 43 85.334 43 170.001c0 75.333 -11.667 128.666 -35 159.999s-57.666 47 -102.999 47
c-42.667 0 -73 -9.33301 -91 -28s-33.333 -44.334 -46 -77.001h-309v858h889v-303h-584v-225c18.667 14 46.334 27 83.001 39s74.667 18 114 18c60 0 114.5 -9.33301 163.5 -28s88.5 -43.334 118.5 -74.001c54.667 -54 91 -111.5 109 -172.5s27 -132.5 27 -214.5z" />
    <glyph glyph-name="six" unicode="6" 
d="M1049 457c0 -98 -21.834 -182.832 -65.501 -254.499s-102.667 -125.334 -177 -161.001s-155.5 -53.5 -243.5 -53.5s-169.167 17.833 -243.5 53.5s-133.166 89.334 -176.499 161.001s-65 156.5 -65 254.5c0 32 3.83301 66.5 11.5 103.5s18.667 74.333 33 112
s31 76.167 50 115.5l44.5 93l281 577h368l-288 -571c18.667 6.66699 45.667 10 81 10c47.333 0 93.833 -9.66699 139.5 -29s87.5 -47.833 125.5 -85.5s68.333 -83.834 91 -138.501s34 -117 34 -187zM712.999 457.001c0 52 -13.999 92.667 -41.999 122s-64 44 -108 44
c-42.667 0 -78.167 -14.667 -106.5 -44s-42.5 -70 -42.5 -122s14 -92.667 42 -122s63.667 -44 107 -44s79.166 14.667 107.499 44s42.5 70 42.5 122z" />
    <glyph glyph-name="seven" unicode="7" 
d="M1069 1155l-455 -1155h-368l454 1155h-311v-229h-319v532h999v-303z" />
    <glyph glyph-name="eight" unicode="8" 
d="M1059 436c0 -98 -21.6689 -180.499 -65.002 -247.499s-102.166 -117.167 -176.499 -150.5s-157.166 -50 -248.499 -50s-174 16.667 -248 50s-132.667 83.5 -176 150.5s-65 149.5 -65 247.5c0 78.667 16 141.834 48 189.501s70.667 89.167 116 124.5
c-43.333 38 -79.166 78.5 -107.499 121.5s-42.5 98.5 -42.5 166.5c0 67.333 12.833 128.333 38.5 183s60.667 100.5 105 137.5s95.166 64.833 152.499 83.5s117 28 179 28c63.333 0 123.666 -9.5 180.999 -28.5s107.833 -46.833 151.5 -83.5
s78.334 -82.334 104.001 -137.001s38.5 -115.667 38.5 -183c0 -69.333 -14.5 -126 -43.5 -170s-64.167 -83.333 -105.5 -118c45.333 -35.333 84 -76.833 116 -124.5s48 -110.834 48 -189.501zM708.998 1028c0 40 -13.5 73.167 -40.5 99.5s-60.167 39.5 -99.5 39.5
c-38.667 0 -71.5 -13.5 -98.5 -40.5s-40.5 -59.833 -40.5 -98.5s13.5 -71.5 40.5 -98.5s59.833 -40.5 98.5 -40.5c39.333 0 72.5 13.167 99.5 39.5s40.5 59.5 40.5 99.5zM722.998 444.001c0 26.667 -7 52 -21 76s-33 43 -57 57s-49.333 21 -76 21c-42 0 -78 -15 -108 -45
s-45 -66.333 -45 -109c0 -42 15 -78 45 -108s66 -45 108 -45c42.667 0 79 15 109 45s45 66 45 108z" />
    <glyph glyph-name="nine" unicode="9" 
d="M1061 1001c0 -65.333 -11.5 -128.5 -34.5 -189.5s-57.833 -138.833 -104.5 -233.5l-281 -578h-369l289 571c-19.333 -6.66699 -46.666 -10 -81.999 -10c-44 0 -89.333 9.66699 -136 29s-89 47.833 -127 85.5s-68.5 84 -91.5 139s-34.5 117.167 -34.5 186.5
c0 98 21.667 182.833 65 254.5s102.166 125.334 176.499 161.001s155.5 53.5 243.5 53.5s169.333 -17.833 244 -53.5s133.667 -89.334 177 -161.001s65 -156.5 65 -254.5zM725 1001c0 52 -13.999 92.667 -41.999 122s-64 44 -108 44c-42.667 0 -78.167 -14.667 -106.5 -44
s-42.5 -70 -42.5 -122c0 -51.333 14 -91.666 42 -120.999s63.667 -44 107 -44s79.166 14.667 107.499 44s42.5 69.666 42.5 120.999z" />
    <glyph glyph-name="colon" unicode=":" horiz-adv-x="649" 
d="M532 518h-368v369h368v-369zM532 0h-368v369h368v-369z" />
    <glyph glyph-name="semicolon" unicode=";" horiz-adv-x="649" 
d="M532 518h-368v369h368v-369zM526 -102l-356 -263v721h356v-458z" />
    <glyph glyph-name="less" unicode="&#x3c;" horiz-adv-x="2103" 
d="M2005 446h-1339l622 -614h-420l-772 772l772 772h420l-622 -614h1339v-316z" />
    <glyph glyph-name="equal" unicode="=" 
d="M1038 696h-938v316h938v-316zM1038 197h-938v315h938v-315z" />
    <glyph glyph-name="greater" unicode="&#x3e;" horiz-adv-x="2103" 
d="M2007 604l-772 -772h-420l623 614h-1342v316h1342l-623 614h420z" />
    <glyph glyph-name="question" unicode="?" horiz-adv-x="1102" 
d="M1040 1040c0 -84.667 -34.668 -172 -104.001 -262l-141 -178c-11.333 -13.333 -20.333 -29 -27 -47s-10 -34.333 -10 -49v-19h-336v47c0 46 6.33301 86.667 19 122s34.334 70.666 65.001 105.999l143 168c37.333 42 56 80 56 114c0 38 -10.333 68.333 -31 91
s-51.334 34 -92.001 34c-41.333 0 -72.166 -11.667 -92.499 -35s-30.5 -54.666 -30.5 -93.999h-336c0 68.667 12.167 130.167 36.5 184.5s57 99.5 98 135.5s89.333 63.667 145 83s115.5 29 179.5 29c128.667 0 237.167 -37.667 325.5 -113s132.5 -181 132.5 -317zM761.999 0
h-344v330h344v-330z" />
    <glyph glyph-name="at" unicode="@" horiz-adv-x="1606" 
d="M1505 -8l-309.004 7.99805v82c-31.333 -31.333 -64.833 -54.833 -100.5 -70.5s-79.167 -23.5 -130.5 -23.5c-102.667 0 -184.667 30 -246 90c-42.667 40.667 -69.667 88.334 -81 143.001s-17 135.334 -17 242.001c0 106 5.66699 186.333 17 241s38.333 102.667 81 144
c62 60 143.333 90 244 90c89.333 0 163.666 -28 222.999 -84v53c0 86.667 -22 151.667 -66 195c-43.333 43.333 -108 65 -194 65h-246c-86 0 -151 -21.667 -195 -65c-26.667 -27.333 -44.167 -56.166 -52.5 -86.499s-12.5 -66.5 -12.5 -108.5v-536
c0 -42 5.33301 -74.833 16 -98.5s30 -49.5 58 -77.5l-232 -232c-42.667 44 -74.667 82.5 -96 115.5s-37.666 71.667 -48.999 116s-17 96.166 -17 155.499v570c0 64 3.83301 120.667 11.5 170s20.834 94.5 39.501 135.5s45.334 78.833 80.001 113.5
c26 26 54.333 47.5 85 64.5s63.334 30.5 98.001 40.5s70.5 16.833 107.5 20.5s82.167 5.5 135.5 5.5h291c98 0 181.333 -9.5 250 -28.5s127.334 -53.167 176.001 -102.5c49.333 -48 83.5 -104.667 102.5 -170s28.5 -148.333 28.5 -249v-928zM1186 462.998
c0 72 -9.83301 122.667 -29.5 152s-50.834 44 -93.501 44s-73.834 -14.667 -93.501 -44s-29.5 -80 -29.5 -152c0 -71.333 9.83301 -122 29.5 -152s50.834 -45 93.501 -45s73.834 15 93.501 45s29.5 80.667 29.5 152z" />
    <glyph glyph-name="A" unicode="A" horiz-adv-x="1337" 
d="M1337 0h-374l-68 217h-449l-71 -217h-375l530 1458h277zM801 516l-123 389l-131 -389h254z" />
    <glyph glyph-name="B" unicode="B" horiz-adv-x="1337" 
d="M1237 430c0 -68.667 -11.3311 -129.667 -33.998 -183s-54.334 -98.333 -95.001 -135s-89.334 -64.5 -146.001 -83.5s-116.667 -28.5 -180 -28.5h-635v1458h605c98.667 0 183 -17.5 253 -52.5s122.833 -84.333 158.5 -148s53.5 -137.5 53.5 -221.5
c0 -70.667 -17.333 -130.167 -52 -178.5s-70.667 -84.833 -108 -109.5c48 -28.667 90 -66.5 126 -113.5s54 -115.167 54 -204.5zM858.002 1018c0 32.667 -10.168 60.667 -30.501 84s-53.166 35 -98.499 35h-223v-238h223c44 0 76.5 11.667 97.5 35s31.5 51.333 31.5 84z
M879.001 451c0 35.333 -10.333 65.334 -31 90.001s-54 37 -100 37h-242v-256h242c45.333 0 78.5 12.667 99.5 38s31.5 55.666 31.5 90.999z" />
    <glyph glyph-name="C" unicode="C" horiz-adv-x="1247" 
d="M1206 463c-12.667 -77.333 -35.502 -146.496 -68.502 -207.496s-74 -111.167 -123 -150.5s-104.167 -68.666 -165.5 -87.999s-126.666 -29 -195.999 -29c-162 0 -297 54.667 -405 164c-64 64 -104.667 136.667 -122 218s-26 184.666 -26 309.999v49v49
c0 125.333 8.66699 228.833 26 310.5s58 154.5 122 218.5c54.667 54.667 114.667 95.5 180 122.5s140.333 40.5 225 40.5c72.667 0 139.334 -9.83301 200.001 -29.5s115 -49 163 -88s88.5 -88.667 121.5 -149s55.833 -129.833 68.5 -208.5h-364
c-12.667 47.333 -33.167 85.166 -61.5 113.499s-70.166 42.5 -125.499 42.5c-30.667 0 -58.167 -5.66699 -82.5 -17s-43.833 -26 -58.5 -44c-12.667 -16 -22.834 -35.167 -30.501 -57.5s-13.667 -56.333 -18 -102s-6.5 -112.834 -6.5 -201.501
c0 -118 4.33301 -200.833 13 -248.5s22.667 -84.834 42 -111.501c32 -41.333 79 -62 141 -62c54 0 95.5 14.167 124.5 42.5s49.833 66.166 62.5 113.499h364z" />
    <glyph glyph-name="D" unicode="D" horiz-adv-x="1333" 
d="M1233 729v-118.998c0 -70.667 -3.16699 -130.834 -9.5 -180.501s-20.5 -98.667 -42.5 -147s-55.333 -94.833 -100 -139.5c-95.333 -95.333 -226.333 -143 -393 -143h-541v1458h541c166.667 0 297.667 -47.667 393 -143c44.667 -44.667 78 -91.167 100 -139.5
s36.167 -97.333 42.5 -147s9.5 -109.834 9.5 -180.501v-119zM874 729.002c0 120 -2.49902 199.167 -7.49902 237.5s-15.167 68.5 -30.5 90.5c-36.667 54.667 -94 82 -172 82h-158v-820h158c78 0 135.333 27.333 172 82c11.333 17.333 19.166 34.5 23.499 51.5
s7.83301 46.167 10.5 87.5s4 104.333 4 189z" />
    <glyph glyph-name="E" unicode="E" horiz-adv-x="1245" 
d="M1139 0h-992v1458h992v-319h-633v-244h541v-320h-541v-256h633v-319z" />
    <glyph glyph-name="F" unicode="F" horiz-adv-x="1221" 
d="M1139 1139h-633v-256h541v-320h-541v-563h-359v1458h992v-319z" />
    <glyph glyph-name="G" unicode="G" horiz-adv-x="1325" 
d="M1225 637c0 -120 -10.833 -217 -32.5 -291s-60.167 -138.667 -115.5 -194c-39.333 -40 -81.5 -72.333 -126.5 -97s-91.833 -42 -140.5 -52s-101 -15 -157 -15c-162 0 -297 54.667 -405 164c-64 64 -104.667 136.667 -122 218s-26 184.666 -26 309.999v49v49
c0 125.333 8.66699 228.833 26 310.5s58 154.5 122 218.5c55.333 55.333 115 96.333 179 123s139.333 40 226 40c173.333 0 306.833 -46.333 400.5 -139s150.167 -207.334 169.5 -344.001h-361c-14.667 57.333 -38 99 -70 125s-78.333 39 -139 39
c-61.333 0 -108.333 -21.333 -141 -64c-12 -15.333 -21.833 -34.166 -29.5 -56.499s-13.5 -56.666 -17.5 -102.999s-6 -112.5 -6 -198.5s2 -152.333 6 -199s9.83301 -81.334 17.5 -104.001s17.5 -41.667 29.5 -57c32 -41.333 79 -62 141 -62c70 0 123.333 19.333 160 58
c36.667 36.667 55 88.334 55 155.001v21h-215v299h572v-203z" />
    <glyph glyph-name="H" unicode="H" horiz-adv-x="1393" 
d="M1245 0h-358v578h-381v-578h-359v1458h359v-561h381v561h358v-1458z" />
    <glyph glyph-name="I" unicode="I" horiz-adv-x="653" 
d="M506 0h-359v1458h359v-1458z" />
    <glyph glyph-name="J" unicode="J" horiz-adv-x="1057" 
d="M930 500c0 -110 -25.833 -203.668 -77.5 -281.001s-119.334 -135.166 -203.001 -173.499s-173.167 -57.5 -268.5 -57.5c-55.333 0 -106.166 5.16699 -152.499 15.5s-88.5 26.666 -126.5 48.999s-77.333 53.833 -118 94.5l235 234c28.667 -27.333 53.5 -46.5 74.5 -57.5
s50.167 -16.5 87.5 -16.5c57.333 0 103.333 16.833 138 50.5s52 83.834 52 150.501v950h359v-958z" />
    <glyph glyph-name="K" unicode="K" horiz-adv-x="1378" 
d="M1378 0h-417l-336 598l-123 -141v-457h-355v1458h355v-516l422 516h438l-498 -590z" />
    <glyph glyph-name="L" unicode="L" horiz-adv-x="1180" 
d="M1118 0h-971v1458h359v-1139h612v-319z" />
    <glyph glyph-name="M" unicode="M" horiz-adv-x="1655" 
d="M1507 0h-358v698l-207 -360h-229l-207 360v-698h-359v1458h353l327 -643l328 643h352v-1458z" />
    <glyph glyph-name="N" unicode="N" horiz-adv-x="1434" 
d="M1286 0h-313l-467 733v-733h-359v1458h314l467 -733v733h358v-1458z" />
    <glyph glyph-name="O" unicode="O" horiz-adv-x="1311" 
d="M1210 729l0.000976562 -48.998c0 -81.333 -2.83301 -151.333 -8.5 -210s-19.167 -115.334 -40.5 -170.001s-54 -104 -98 -148c-54 -54 -113.5 -94.833 -178.5 -122.5s-141.5 -41.5 -229.5 -41.5c-59.333 0 -112.833 6.16699 -160.5 18.5s-91.667 30.5 -132 54.5
s-78.5 54.333 -114.5 91c-64 64 -104.667 136.667 -122 218s-26 184.666 -26 309.999v49v49c0 125.333 8.66699 228.833 26 310.5s58 154.5 122 218.5c55.333 55.333 115.166 96.333 179.499 123s140.166 40 227.499 40c88 0 164.333 -13.5 229 -40.5
s124.334 -67.833 179.001 -122.5c44 -44 76.667 -93.5 98 -148.5s34.833 -111.833 40.5 -170.5s8.5 -128.667 8.5 -210v-49zM852.001 729.002c0 124 -4.16602 208.664 -12.499 253.997s-21.833 80 -40.5 104c-13.333 18.667 -32.833 34 -58.5 46s-54.167 18 -85.5 18
c-30.667 0 -58.334 -5.83301 -83.001 -17.5s-44.667 -27.167 -60 -46.5c-12 -15.333 -21.833 -34.166 -29.5 -56.499s-13.5 -56.666 -17.5 -102.999s-6 -112.5 -6 -198.5c0 -85.333 2 -151.166 6 -197.499s9.83301 -80.5 17.5 -102.5s17.5 -40.667 29.5 -56
c34 -44 81.667 -66 143 -66c62 0 110 22 144 66c18.667 26 32.167 60.833 40.5 104.5s12.5 127.5 12.5 251.5z" />
    <glyph glyph-name="P" unicode="P" horiz-adv-x="1284" 
d="M1223 989c0 -82 -19.5 -158.667 -58.5 -230s-95.833 -129 -170.5 -173s-164.334 -66 -269.001 -66h-219v-520h-359v1458h578c104.667 0 194.334 -21.833 269.001 -65.5s131.5 -101.167 170.5 -172.5s58.5 -148.333 58.5 -231zM864 989c0 26 -6.16699 50.332 -18.5 72.999
s-30.333 40.834 -54 54.501s-51.167 20.5 -82.5 20.5h-203v-295h203c31.333 0 58.833 6.83301 82.5 20.5s41.667 31.667 54 54s18.5 46.5 18.5 72.5z" />
    <glyph glyph-name="Q" unicode="Q" horiz-adv-x="1311" 
d="M1233 125l-182 -182l-113 112c-77.333 -44.667 -171.666 -67 -282.999 -67c-59.333 0 -112.833 6.16699 -160.5 18.5s-91.667 30.5 -132 54.5s-78.5 54.333 -114.5 91c-64 64 -104.667 136.667 -122 218s-26 184.666 -26 309.999v49v49
c0 125.333 8.66699 228.833 26 310.5s58 154.5 122 218.5c55.333 55.333 115.166 96.333 179.499 123s140.166 40 227.499 40c88 0 164.333 -13.5 229 -40.5s124.334 -67.833 179.001 -122.5c44 -44 76.667 -93.5 98 -148.5s34.833 -111.833 40.5 -170.5
s8.5 -128.667 8.5 -210v-49c0 -80 -1.33301 -145.667 -4 -197s-10 -103.166 -22 -155.499s-31.333 -100.833 -58 -145.5zM852 729c0 124 -4.16699 208.664 -12.5 253.997s-21.833 80 -40.5 104c-13.333 18.667 -32.833 34 -58.5 46s-54.167 18 -85.5 18
c-30.667 0 -58.334 -5.83301 -83.001 -17.5s-44.667 -27.167 -60 -46.5c-12 -15.333 -21.833 -34.166 -29.5 -56.499s-13.5 -56.666 -17.5 -102.999s-6 -112.5 -6 -198.5c0 -85.333 2 -151.166 6 -197.499s9.83301 -80.5 17.5 -102.5s17.5 -40.667 29.5 -56
c34 -44 81.667 -66 143 -66c12.667 0 22.334 0.666992 29.001 2l-92 92l182 183l70 -70c5.33301 65.333 8 137 8 215z" />
    <glyph glyph-name="R" unicode="R" horiz-adv-x="1335" 
d="M1300 0h-415.001l-258 543h-121v-543h-359v1458h578c104.667 0 194.334 -21.833 269.001 -65.5s131.5 -101.167 170.5 -172.5s58.5 -148.333 58.5 -231c0 -91.333 -23.167 -169.5 -69.5 -234.5s-102.5 -113.833 -168.5 -146.5zM863.999 989
c0 26 -6.16699 50.332 -18.5 72.999s-30.333 40.834 -54 54.501s-51.167 20.5 -82.5 20.5h-203v-295h203c31.333 0 58.833 6.83301 82.5 20.5s41.667 31.667 54 54s18.5 46.5 18.5 72.5z" />
    <glyph glyph-name="S" unicode="S" horiz-adv-x="1214" 
d="M1126 446c0 -95.333 -25.168 -177.67 -75.501 -247.003s-118.333 -121.833 -204 -157.5s-180.167 -53.5 -283.5 -53.5c-120.667 0 -225.667 14.333 -315 43s-168.666 78.334 -237.999 149.001l230 230c36 -36 83.333 -62.167 142 -78.5s119.667 -24.5 183 -24.5
c139.333 0 209 43.667 209 131c0 37.333 -9.66699 66 -29 86s-51.333 33 -96 39l-176 25c-129.333 18 -227 61 -293 129c-66.667 68.667 -100 166.334 -100 293.001c0 88.667 21.5 167.834 64.5 237.501s104.667 124.167 185 163.5s174.5 59 282.5 59
c107.333 0 201.166 -13.833 281.499 -41.5s150.5 -71.834 210.5 -132.501l-225 -225c-37.333 37.333 -77.666 61 -120.999 71s-95.333 15 -156 15c-57.333 0 -101 -13.667 -131 -41s-45 -58.666 -45 -93.999c0 -26 9.66699 -48.667 29 -68c22.667 -22.667 56 -37 100 -43
l176 -24c128 -18.667 223.667 -59 287 -121c38 -36.667 65.5 -81.167 82.5 -133.5s25.5 -114.5 25.5 -186.5z" />
    <glyph glyph-name="T" unicode="T" horiz-adv-x="1198" 
d="M1137 1139h-359v-1139h-358v1139h-359v319h1076v-319z" />
    <glyph glyph-name="U" unicode="U" horiz-adv-x="1352" 
d="M1229 512c0 -76.667 -14.335 -147.666 -43.002 -212.999s-68.667 -121.333 -120 -168s-110.666 -82.167 -177.999 -106.5s-138.666 -36.5 -213.999 -36.5c-99.333 0 -191.5 21.667 -276.5 65s-152 104.833 -201 184.5s-73.5 171.167 -73.5 274.5v946h358v-938
c0 -66.667 17.167 -118.834 51.5 -156.501s81.5 -56.5 141.5 -56.5c38.667 0 73 8.33301 103 25s53 41 69 73s24 70.333 24 115v938h359v-946z" />
    <glyph glyph-name="V" unicode="V" horiz-adv-x="1231" 
d="M1231 1458l-483 -1458h-267l-481 1458h371l245 -815l242 815h373z" />
    <glyph glyph-name="W" unicode="W" horiz-adv-x="1855" 
d="M1855 1458l-399 -1458h-293l-235 719l-236 -719h-291l-401 1458h375l190 -770l236 770h254l235 -770l191 770h374z" />
    <glyph glyph-name="X" unicode="X" horiz-adv-x="1298" 
d="M1298 0h-409l-240 449l-239 -449h-410l455 748l-426 710h407l213 -411l213 411h408l-426 -710z" />
    <glyph glyph-name="Y" unicode="Y" horiz-adv-x="1239" 
d="M1239 1458l-440 -864v-594h-359v594l-440 864h391l230 -524l227 524h391z" />
    <glyph glyph-name="Z" unicode="Z" horiz-adv-x="1112" 
d="M1051 0h-990v279l560 860h-535v319h965v-278l-562 -861h562v-319z" />
    <glyph glyph-name="bracketleft" unicode="[" horiz-adv-x="852" 
d="M770 -152h-623v1762h623v-303h-287v-1155h287v-304z" />
    <glyph glyph-name="backslash" unicode="\" horiz-adv-x="883" 
d="M883 -152h-312l-571 1725h311z" />
    <glyph glyph-name="bracketright" unicode="]" horiz-adv-x="852" 
d="M705 -152h-623v304h287v1155h-287v303h623v-1762z" />
    <glyph glyph-name="asciicircum" unicode="^" horiz-adv-x="1311" 
d="M1194 768h-354l-185 338l-184 -338h-354l383 707h311z" />
    <glyph glyph-name="underscore" unicode="_" horiz-adv-x="1311" 
d="M1311 -381h-1311v221h1311v-221z" />
    <glyph glyph-name="grave" unicode="`" horiz-adv-x="1024" 
d="M631 1249h-203l-242 369h344z" />
    <glyph glyph-name="a" unicode="a" horiz-adv-x="1098" 
d="M989 0l-327.001 -0.00195312v90c-36.667 -35.333 -72.667 -60.833 -108 -76.5s-81.333 -23.5 -138 -23.5c-110.667 0 -198.667 32.667 -264 98c-64.667 64.667 -97 150.667 -97 258c0 58.667 13.333 112 40 160s68.167 86.667 124.5 116s126.5 44 210.5 44h223v28
c0 50.667 -12.833 86.167 -38.5 106.5s-68.167 30.5 -127.5 30.5c-41.333 0 -74.166 -5.33301 -98.499 -16s-50.166 -29.667 -77.499 -57l-209 209c57.333 56.667 115.166 95.334 173.499 116.001s134.5 31 228.5 31c158.667 0 279.167 -33.167 361.5 -99.5
s123.5 -166.166 123.5 -299.499v-715zM652.999 413.998v28h-170c-32 0 -57.667 -8 -77 -24s-29 -37.333 -29 -64c0 -26 9.66699 -47.833 29 -65.5s46.333 -26.5 81 -26.5c32.667 0 58.667 2.5 78 7.5s38 16.167 56 33.5c21.333 20.667 32 57.667 32 111z" />
    <glyph glyph-name="b" unicode="b" horiz-adv-x="1165" 
d="M1077 551v-51c0 -98 -6 -180.167 -18 -246.5s-40 -121.5 -84 -165.5c-68 -66.667 -157.333 -100 -268 -100c-54.667 0 -101.5 8 -140.5 24s-76.833 42 -113.5 78v-90h-326v1458h336v-436c31.333 31.333 66.833 54.5 106.5 69.5s86.167 22.5 139.5 22.5
c109.333 0 198 -33.333 266 -100c44 -44 72 -99.167 84 -165.5s18 -148.5 18 -246.5v-51zM741 551c0 58 -3.16797 105.833 -9.50098 143.5s-19.333 66.5 -39 86.5s-49.834 30 -90.501 30c-57.333 0 -94.833 -20.667 -112.5 -62s-26.5 -107.333 -26.5 -198
c0 -58 3.16699 -105.833 9.5 -143.5s19.333 -66.5 39 -86.5s49.834 -30 90.501 -30s70.834 10 90.501 30s32.667 48.833 39 86.5s9.5 85.5 9.5 143.5z" />
    <glyph glyph-name="c" unicode="c" horiz-adv-x="973" 
d="M936 129c-29.333 -29.333 -62.832 -54.832 -100.499 -76.499s-78.834 -37.834 -123.501 -48.501s-91 -16 -139 -16c-78 0 -153.833 15 -227.5 45s-136.667 87.333 -189 172s-78.5 200 -78.5 346s26.167 261.333 78.5 346s115.333 142 189 172s149.5 45 227.5 45
c74.667 0 142.334 -12 203.001 -36s114 -59 160 -105l-227 -228c-44 44 -89.333 66 -136 66c-40.667 0 -75.334 -14.333 -104.001 -43c-36.667 -38.667 -55 -111 -55 -217s18.333 -178.333 55 -217c28.667 -28.667 63.334 -43 104.001 -43
c47.333 0 92.666 21.667 135.999 65z" />
    <glyph glyph-name="d" unicode="d" horiz-adv-x="1165" 
d="M1038 0l-324.999 -0.000976562v90c-36.667 -35.333 -74.334 -61.166 -113.001 -77.499s-85.667 -24.5 -141 -24.5c-111.333 0 -201 33.333 -269 100c-42.667 42.667 -70.334 97.5 -83.001 164.5s-19 149.5 -19 247.5v51v51c0 98 6.33301 180.5 19 247.5
s40.334 121.833 83.001 164.5c20.667 20.667 45.5 38.667 74.5 54s59.333 26.833 91 34.5s65.5 11.5 101.5 11.5c102 0 183.667 -30.667 245 -92v436h336v-1458zM702.001 550.999c0 58 -3.16797 105.833 -9.50098 143.5s-19.333 66.5 -39 86.5s-49.834 30 -90.501 30
c-57.333 0 -94.833 -20.667 -112.5 -62s-26.5 -107.333 -26.5 -198c0 -58 3.16699 -105.833 9.5 -143.5s19.333 -66.5 39 -86.5s49.834 -30 90.501 -30s70.834 10 90.501 30s32.667 48.833 39 86.5s9.5 85.5 9.5 143.5z" />
    <glyph glyph-name="e" unicode="e" horiz-adv-x="1145" 
d="M1067 442l-658.999 0.00195312c0 -48 17.5 -88.667 52.5 -122s82.167 -50 141.5 -50c56 0 99.833 7.33301 131.5 22s63.5 38 95.5 70l201 -200c-60.667 -60.667 -122.334 -104.834 -185.001 -132.501s-143.667 -41.5 -243 -41.5c-349.333 0 -524 187.667 -524 563
c0 176.667 45.5 314.667 136.5 414s209.833 149 356.5 149c103.333 0 192.5 -23 267.5 -69s131.833 -108.333 170.5 -187s58 -167.334 58 -266.001v-150zM735.001 666.002c0 32.667 -6 61.334 -18 86.001c-10.667 24.667 -28.5 45.167 -53.5 61.5s-55.833 24.5 -92.5 24.5
s-67.5 -8.16699 -92.5 -24.5s-42.5 -36.833 -52.5 -61.5c-12 -24.667 -18 -53.334 -18 -86.001h327z" />
    <glyph glyph-name="f" unicode="f" horiz-adv-x="733" 
d="M682 801l-183.999 0.000976562v-801h-336v801h-101v258h101v96c0 53.333 12.167 105.166 36.5 155.499s62.166 91.333 113.499 123s115.333 47.5 192 47.5h178v-283h-117c-44.667 0 -67 -22.667 -67 -68v-71h184v-258z" />
    <glyph glyph-name="g" unicode="g" horiz-adv-x="1149" 
d="M1022 80c0 -64 -11.6709 -123.668 -35.0039 -179.001s-57 -103.166 -101 -143.499s-97.167 -71.5 -159.5 -93.5s-129.833 -33 -202.5 -33c-62 0 -116.667 4.33301 -164 13s-91.833 23.5 -133.5 44.5s-80.167 49.833 -115.5 86.5l208 209
c24.667 -24.667 52.834 -42.5 84.501 -53.5s66.5 -16.5 104.5 -16.5c63.333 0 108.833 16.833 136.5 50.5s41.5 72.834 41.5 117.501v80c-60.667 -61.333 -139.667 -92 -237 -92c-107.333 0 -193.666 32.667 -258.999 98c-32 32 -55.333 67.5 -70 106.5
s-23.667 80.833 -27 125.5s-5 108.667 -5 192c0 64 0.833008 113 2.5 147s5.83398 68.833 12.501 104.5s16.667 67.167 30 94.5s32.333 53.333 57 78c30.667 30.667 68.834 54.667 114.501 72s94.5 26 146.5 26c54 0 100 -8.33301 138 -25s73.667 -42.334 107 -77.001v90
h326v-1022zM685.996 591.999c0 45.333 -2.66699 83.333 -8 114s-17.666 55.834 -36.999 75.501s-48 29.5 -86 29.5s-66.667 -9.83301 -86 -29.5s-31.666 -44.667 -36.999 -75s-8 -68.5 -8 -114.5c0 -45.333 2.66699 -83.333 8 -114s17.666 -55.834 36.999 -75.501
s48 -29.5 86 -29.5s66.667 9.83301 86 29.5s31.666 44.667 36.999 75s8 68.5 8 114.5z" />
    <glyph glyph-name="h" unicode="h" horiz-adv-x="1174" 
d="M1057 0h-335.997v668c0 52.667 -13.833 89.667 -41.5 111s-56.834 32 -87.501 32s-59.834 -11 -87.501 -33s-41.5 -58.667 -41.5 -110v-668h-336v1458h336v-446c33.333 33.333 71.166 58.666 113.499 75.999s85.166 26 128.499 26
c76.667 0 141.334 -17.167 194.001 -51.5s92.167 -82.166 118.5 -143.499s39.5 -129.333 39.5 -204v-715z" />
    <glyph glyph-name="i" unicode="i" horiz-adv-x="590" 
d="M463 1214h-336v256h336v-256zM463 0h-336v1059h336v-1059z" />
    <glyph glyph-name="j" unicode="j" horiz-adv-x="590" 
d="M463 1214h-336v256h336v-256zM463 -43c0 -86.667 -28.832 -162.667 -86.499 -228s-142.834 -98 -255.501 -98h-178v283h116c45.333 0 68 22.667 68 68v1077h336v-1102z" />
    <glyph glyph-name="k" unicode="k" horiz-adv-x="1174" 
d="M1174 0h-416l-230 403l-65 -71v-332h-336v1458h336v-741l297 385h403l-405 -457z" />
    <glyph glyph-name="l" unicode="l" horiz-adv-x="698" 
d="M637 0l-178.001 0.000976562c-76.667 0 -140.667 15.833 -192 47.5s-89.166 72.667 -113.499 123s-36.5 102.166 -36.5 155.499v1132h336v-1108c0 -44.667 22.333 -67 67 -67h117v-283z" />
    <glyph glyph-name="m" unicode="m" horiz-adv-x="1792" 
d="M1675 0l-336.001 0.000976562v659c0 56.667 -14.5 96.167 -43.5 118.5s-59.5 33.5 -91.5 33.5s-62.5 -11.333 -91.5 -34s-43.5 -62 -43.5 -118v-659h-336v659c0 56.667 -14.5 96.167 -43.5 118.5s-59.5 33.5 -91.5 33.5s-62.5 -11.333 -91.5 -34s-43.5 -62 -43.5 -118
v-659h-336v1102h328v-90c32 32 71.5 57 118.5 75s92.833 27 137.5 27c110 0 199.333 -39 268 -117c47.333 41.333 95 71.166 143 89.499s104 27.5 168 27.5c52.667 0 102.834 -8.33301 150.501 -25s85.5 -39.667 113.5 -69c44.667 -44 76 -91.5 94 -142.5
s27 -108.5 27 -172.5v-705z" />
    <glyph glyph-name="n" unicode="n" horiz-adv-x="1186" 
d="M1069 0l-335.999 0.000976562v659c0 56.667 -14.5 96.167 -43.5 118.5s-59.5 33.5 -91.5 33.5s-62.5 -11.333 -91.5 -34s-43.5 -62 -43.5 -118v-659h-336v1102h328v-90c32 32 71.5 57 118.5 75s92.833 27 137.5 27c102 0 184.333 -31.333 247 -94
c43.333 -42 72.666 -88.333 87.999 -139s23 -109.334 23 -176.001v-705z" />
    <glyph glyph-name="o" unicode="o" horiz-adv-x="1126" 
d="M1038 551c0 -108.667 -8.66602 -193.835 -25.999 -255.502s-48.666 -117.167 -93.999 -166.5c-88.667 -94 -207 -141 -355 -141c-148.667 0 -266.667 47 -354 141c-30 32 -54 67 -72 105s-30.667 81.5 -38 130.5s-11 111.167 -11 186.5c0 74.667 3.66699 136.5 11 185.5
s20 92.333 38 130s42 73.167 72 106.5c38.667 40.667 87 74.334 145 101.001s127.667 40 209 40s151.166 -13.167 209.499 -39.5s106.833 -60.166 145.5 -101.499c45.333 -49.333 76.666 -105 93.999 -167s26 -147 26 -255zM702.001 550.999c0 64 -3.16699 113.5 -9.5 148.5
s-19.5 61.833 -39.5 80.5c-20 20.667 -50 31 -90 31c-39.333 0 -69.333 -10.333 -90 -31c-20 -20 -33.167 -48.5 -39.5 -85.5s-9.5 -84.833 -9.5 -143.5s3.16699 -106.167 9.5 -142.5s19.5 -65.166 39.5 -86.499c20.667 -20.667 50.667 -31 90 -31c40 0 70 10.167 90 30.5
s33.167 47.666 39.5 81.999s9.5 83.5 9.5 147.5z" />
    <glyph glyph-name="p" unicode="p" horiz-adv-x="1165" 
d="M1077 551v-51c0 -98 -6 -180.167 -18 -246.5s-40 -121.5 -84 -165.5c-68 -66.667 -156.667 -100 -266 -100c-103.333 0 -185.333 30.667 -246 92v-436h-336v1458h326v-90c68 68 152.667 102 254 102c110.667 0 200 -33.333 268 -100c44 -44 72 -99.167 84 -165.5
s18 -148.5 18 -246.5v-51zM741 551c0 58 -3.16797 105.833 -9.50098 143.5s-19.333 66.5 -39 86.5s-49.834 30 -90.501 30c-57.333 0 -94.833 -20.667 -112.5 -62s-26.5 -107.333 -26.5 -198c0 -58 3.16699 -105.833 9.5 -143.5s19.333 -66.5 39 -86.5
s49.834 -30 90.501 -30s70.834 10 90.501 30s32.667 48.833 39 86.5s9.5 85.5 9.5 143.5z" />
    <glyph glyph-name="q" unicode="q" horiz-adv-x="1165" 
d="M1038 -356l-336.001 0.000976562v436c-60.667 -61.333 -142.334 -92 -245.001 -92c-53.333 0 -103.166 9 -149.499 27s-85.5 42.333 -117.5 73c-42.667 42.667 -70.334 97.5 -83.001 164.5s-19 149.5 -19 247.5v51v51c0 98 6.33301 180.5 19 247.5
s40.334 121.833 83.001 164.5c68 66.667 157.667 100 269 100c55.333 0 102.833 -8.33301 142.5 -25s76.834 -42.334 111.501 -77.001v90h325v-1458zM701.999 551.001c0 58 -3.16797 105.833 -9.50098 143.5s-19.333 66.5 -39 86.5s-49.834 30 -90.501 30
c-57.333 0 -94.833 -20.667 -112.5 -62s-26.5 -107.333 -26.5 -198c0 -58 3.16699 -105.833 9.5 -143.5s19.333 -66.5 39 -86.5s49.834 -30 90.501 -30s70.834 10 90.501 30s32.667 48.833 39 86.5s9.5 85.5 9.5 143.5z" />
    <glyph glyph-name="r" unicode="r" horiz-adv-x="973" 
d="M973 1012l-254.002 -258.002c-18.667 18.667 -36.667 32.834 -54 42.501s-39.666 14.5 -66.999 14.5c-31.333 0 -61.666 -11.5 -90.999 -34.5s-44 -62.167 -44 -117.5v-659h-336v1102h328v-90c28 28 64.833 52 110.5 72s95.5 30 149.5 30c54.667 0 102 -7.66699 142 -23
s78.667 -41.666 116 -78.999z" />
    <glyph glyph-name="s" unicode="s" horiz-adv-x="1032" 
d="M977 360c0 -83.333 -21.3301 -152.833 -63.9971 -208.5s-100 -96.834 -172 -123.501s-152.333 -40 -241 -40c-68 0 -127.167 3.16699 -177.5 9.5s-101.333 20.833 -153 43.5s-101.5 58 -149.5 106l218 218c61.333 -62 150.666 -93 267.999 -93
c32.667 0 64.667 5.66699 96 17s47 29.666 47 54.999c0 42 -26.667 65.333 -80 70l-170 16c-64 6 -120.167 20.833 -168.5 44.5s-85.5 58 -111.5 103s-39 102.5 -39 172.5c0 58 12.167 110.333 36.5 157s56.833 85 97.5 115s87.167 52.833 139.5 68.5
s107.166 23.5 164.499 23.5c98 0 182 -9.66699 252 -29s130.667 -54.666 182 -105.999l-207 -207c-44 44 -121.667 66 -233 66c-36.667 0 -64 -6.66699 -82 -20s-27 -28 -27 -44c0 -35.333 24 -55.666 72 -60.999l170 -17c75.333 -6.66699 137.666 -25.167 186.999 -55.5
s85.833 -69.5 109.5 -117.5s35.5 -102.333 35.5 -163z" />
    <glyph glyph-name="t" unicode="t" horiz-adv-x="743" 
d="M662 0l-168.001 0.000976562c-76.667 0 -140.667 15.833 -192 47.5s-89.166 72.667 -113.499 123s-36.5 102.166 -36.5 155.499v475h-101v258h101v315h335v-315h175v-258h-175v-451c0 -44.667 22.667 -67 68 -67h107v-283z" />
    <glyph glyph-name="u" unicode="u" horiz-adv-x="1186" 
d="M1059 0l-327.998 0.000976562v90c-32.667 -32.667 -72.334 -57.834 -119.001 -75.501s-92.334 -26.5 -137.001 -26.5c-101.333 0 -184 31.333 -248 94c-42.667 42.667 -71.667 89.167 -87 139.5s-23 108.833 -23 175.5v705h336v-660c0 -55.333 14.5 -94.333 43.5 -117
s59.5 -34 91.5 -34s62.5 11.167 91.5 33.5s43.5 61.5 43.5 117.5v660h336v-1102z" />
    <glyph glyph-name="v" unicode="v" horiz-adv-x="1067" 
d="M1067 1102l-405 -1102h-256l-406 1102h352l183 -572l180 572h352z" />
    <glyph glyph-name="w" unicode="w" horiz-adv-x="1597" 
d="M1597 1102l-331 -1102h-269l-198 604l-199 -604h-268l-332 1102h354l138 -572l190 572h233l191 -572l137 572h354z" />
    <glyph glyph-name="x" unicode="x" 
d="M1139 0h-404l-168 279l-164 -279h-403l383 563l-369 539h404l149 -266l154 266h403l-368 -539z" />
    <glyph glyph-name="y" unicode="y" horiz-adv-x="1053" 
d="M1069 1102l-457.002 -1233c-21.333 -61.333 -50 -109.666 -86 -144.999c-57.333 -62 -139.666 -93 -246.999 -93h-127v303h71c31.333 0 55.333 5.66699 72 17s30.334 33 41.001 65l31 93l-367 993h352l187 -572l178 572h352z" />
    <glyph glyph-name="z" unicode="z" horiz-adv-x="1001" 
d="M920 0h-859v248l420 551h-395v303h834v-248l-428 -551h428v-303z" />
    <glyph glyph-name="braceleft" unicode="{" horiz-adv-x="1061" 
d="M979 -152l-287 -0.000976562c-104.667 0 -185.667 28.667 -243 86c-66 66 -99 146 -99 240v244c0 58.667 -11.667 99.667 -35 123c-24.667 24.667 -62.667 37 -114 37h-119v303h119c52 0 90 12.333 114 37c23.333 22.667 35 63.334 35 122.001v244c0 94 33 174 99 240
c27.333 27.333 61.5 48.5 102.5 63.5s87.833 22.5 140.5 22.5h287v-303h-143c-58.667 0 -97.667 -9.66699 -117 -29c-22 -22 -33 -65.667 -33 -131v-213c0 -110.667 -49.667 -179 -149 -205c99.333 -26 149 -94.333 149 -205v-213c0 -65.333 11 -109 33 -131
c18.667 -18.667 57.667 -28 117 -28h143v-304z" />
    <glyph glyph-name="bar" unicode="|" horiz-adv-x="745" 
d="M541 -152h-336v1762h336v-1762z" />
    <glyph glyph-name="braceright" unicode="}" horiz-adv-x="1061" 
d="M979 578l-119 0.00292969c-50.667 0 -89 -12.333 -115 -37c-22.667 -23.333 -34 -64.333 -34 -123v-244c0 -94 -33 -174 -99 -240c-57.333 -57.333 -138.333 -86 -243 -86h-287v304h143c58.667 0 97.667 9.33301 117 28c22 22 33 65.667 33 131v213
c0 111.333 49.667 179.666 149 204.999c-99.333 25.333 -149 93.666 -149 204.999v213c0 65.333 -11 109 -33 131c-20 19.333 -59 29 -117 29h-143v303h287c54 0 101.5 -7.66699 142.5 -23s74.5 -36.333 100.5 -63c66 -66 99 -146 99 -240v-244
c0 -58.667 11.333 -99.334 34 -122.001c24.667 -24.667 63 -37 115 -37h119v-303z" />
    <glyph glyph-name="asciitilde" unicode="~" horiz-adv-x="1323" 
d="M1262 580c-45.333 -45.333 -87.998 -82.499 -127.998 -111.499s-80.5 -50.5 -121.5 -64.5s-85.5 -21 -133.5 -21c-30.667 0 -59.834 2 -87.501 6s-54.334 11 -80.001 21s-53.834 24.333 -84.501 43c-60 34 -117.333 51 -172 51c-33.333 0 -63.333 -5.5 -90 -16.5
s-57 -33.5 -91 -67.5l-213 213c69.333 69.333 132.5 119.333 189.5 150s120.167 46 189.5 46c50 0 93.333 -4.83301 130 -14.5s77.334 -27.834 122.001 -54.501c58 -34 115.333 -51 172 -51c31.333 0 61 5.5 89 16.5s58.333 33.5 91 67.5z" />
    <glyph glyph-name="nonbreakingspace" unicode="&#xa0;" horiz-adv-x="455" 
 />
    <glyph glyph-name="exclamdown" unicode="&#xa1;" horiz-adv-x="750" 
d="M506 772h-344v330h344v-330zM545 -356h-422l90 972h242z" />
    <glyph glyph-name="cent" unicode="&#xa2;" horiz-adv-x="1022" 
d="M985 356c-81.333 -80.667 -170.665 -132.332 -267.998 -154.999v-201h-258v201c-112.667 26 -204.334 85.333 -275.001 178s-106 216.334 -106 371.001c0 155.333 35.5 279.333 106.5 372s162.5 151.334 274.5 176.001v160h258v-160
c97.333 -22.667 186.666 -74.334 267.999 -155.001l-219 -219c-36.667 35.333 -66.667 57.666 -90 66.999v-483c23.333 9.33301 53.333 31.666 90 66.999zM500.001 512.002l-0.000976562 475.002c-13.333 -10 -21.666 -16.667 -24.999 -20
c-40.667 -42.667 -61 -115 -61 -217c0 -100.667 19.667 -172.334 59 -215.001c9.33301 -10.667 18.333 -18.334 27 -23.001z" />
    <glyph glyph-name="sterling" unicode="&#xa3;" horiz-adv-x="1223" 
d="M1141 0h-946v569h-123v258h123v131c0 110 25.833 203.667 77.5 281s119.167 135.166 202.5 173.499s172.666 57.5 267.999 57.5c86.667 0 160.334 -12 221.001 -36s119.667 -65 177 -123l-236 -234c-23.333 24.667 -46.833 43.167 -70.5 55.5s-54.167 18.5 -91.5 18.5
c-58 0 -104.167 -16.667 -138.5 -50s-51.5 -83.666 -51.5 -150.999v-123h190v-258h-190v-250h588v-319z" />
    <glyph glyph-name="currency" unicode="&#xa4;" horiz-adv-x="1380" 
d="M1284 233l-223 -223.001l-150 150c-73.333 -36 -147 -54 -221 -54c-73.333 0 -147 18 -221 54l-150 -150l-223 223l150 150c-35.333 72.667 -53 146.334 -53 221.001c0 75.333 17.667 149 53 221l-150 150l223 223l150 -149c75.333 35.333 149 53 221 53
c73.333 0 147 -17.667 221 -53l150 149l223 -223l-149 -150c35.333 -74 53 -147.667 53 -221c0 -72 -17.667 -145.667 -53 -221zM885 603.999c0 52.667 -19.333 98.334 -58 137.001s-84.334 58 -137.001 58c-52 0 -97.333 -19.333 -136 -58s-58 -84.334 -58 -137.001
c0 -52 19.333 -97.333 58 -136s84 -58 136 -58c52.667 0 98.334 19.333 137.001 58s58 84 58 136z" />
    <glyph glyph-name="yen" unicode="&#xa5;" horiz-adv-x="1239" 
d="M1239 1458l-256 -504h123v-258h-256l-51 -102v-102h307v-259h-307v-233h-359v233h-307v259h307v102l-51 102h-256v258h123l-256 504h391l230 -524l227 524h391z" />
    <glyph glyph-name="section" unicode="&#xa7;" horiz-adv-x="1057" 
d="M973 584c0 -32.667 -5.5 -64.667 -16.5 -96s-25 -58.833 -42 -82.5s-35.5 -45.167 -55.5 -64.5s-37.333 -34 -52 -44c44 -26 79.167 -60.333 105.5 -103s39.5 -100.667 39.5 -174c0 -86 -20.333 -158.5 -61 -217.5s-93.167 -102.333 -157.5 -130
s-132.166 -41.5 -203.499 -41.5c-52.667 0 -103.334 6.66699 -152.001 20s-93.667 35.333 -135 66s-74 70.834 -98 120.501s-36 108.5 -36 176.5h319c0 -24 9.16699 -45 27.5 -63s43.166 -27 74.499 -27c32.667 0 58 8.33301 76 25s27 36.334 27 59.001
c0 49.333 -40.333 89 -121 119l-111 41c-73.333 27.333 -131.833 56.166 -175.5 86.499s-76.834 70 -99.501 119s-34 110.833 -34 185.5c0 64 18 121.333 54 172s74.667 89 116 115c-40.667 26 -73.334 58.667 -98.001 98s-37 92.666 -37 159.999
c0 62.667 13.833 121.5 41.5 176.5s72.167 100.333 133.5 136s139 53.5 233 53.5c94.667 0 172.334 -16.667 233.001 -50s104.834 -77.833 132.501 -133.5s41.5 -117.834 41.5 -186.501h-311c0 29.333 -9 51 -27 65s-41 21 -69 21c-32 0 -56.167 -7.16699 -72.5 -21.5
s-24.5 -31.166 -24.5 -50.499c0 -38.667 38.333 -71.334 115 -98.001l111 -41c110.667 -41.333 189.834 -89.166 237.501 -143.499s71.5 -136.833 71.5 -247.5zM653 571c0 50 -13.667 86.333 -41 109c-20.667 18 -47.334 27 -80.001 27c-31.333 0 -57.666 -9 -78.999 -27
c-27.333 -22.667 -41 -59 -41 -109c0 -49.333 13.667 -85.333 41 -108c20.667 -18 47 -27 79 -27s58.667 9 80 27c27.333 22.667 41 58.667 41 108z" />
    <glyph glyph-name="dieresis" unicode="&#xa8;" horiz-adv-x="1024" 
d="M881 1247h-275v297h275v-297zM418 1247h-275v297h275v-297z" />
    <glyph glyph-name="copyright" unicode="&#xa9;" horiz-adv-x="1683" 
d="M1583 729c0 -99.333 -19.333 -194.668 -58 -286.001s-91.667 -170.666 -159 -237.999s-146.666 -120.333 -237.999 -159s-186.666 -58 -285.999 -58s-194.5 19.167 -285.5 57.5s-170.5 91.333 -238.5 159s-121.333 147.167 -160 238.5s-58 186.666 -58 285.999
s19.333 194.666 58 285.999s92 170.833 160 238.5s147.5 120.667 238.5 159s186.167 57.5 285.5 57.5s194.666 -19.333 285.999 -58s170.666 -91.667 237.999 -159s120.333 -146.666 159 -237.999s58 -186.666 58 -285.999zM1372 728.998
c0 78.667 -13.168 151.5 -39.501 218.5s-63.333 124.667 -111 173s-104 85.666 -169 111.999s-135.167 39.5 -210.5 39.5c-99.333 0 -189.666 -23 -270.999 -69s-145 -110.167 -191 -192.5s-69 -176.166 -69 -281.499c0 -104 23.167 -197.5 69.5 -280.5
s110 -147.5 191 -193.5s171.167 -69 270.5 -69s189.5 23 270.5 69s144.5 110.5 190.5 193.5s69 176.5 69 280.5zM1130 441.998c-25.333 -22 -51.666 -40.833 -78.999 -56.5s-57.333 -27.834 -90 -36.501s-66.334 -13 -101.001 -13c-102 0 -189.333 33.5 -262 100.5
s-109 164.5 -109 292.5c0 86.667 17.5 159.834 52.5 219.501s80.667 103.5 137 131.5s116.833 42 181.5 42c98 0 188 -35.333 270 -106l-137 -137c-22 19.333 -43.167 33.333 -63.5 42s-43.5 13 -69.5 13c-48.667 0 -87.5 -17.667 -116.5 -53s-43.5 -86 -43.5 -152
s14.5 -116.667 43.5 -152s67.833 -53 116.5 -53c26 0 48.667 4.33301 68 13s41 23 65 43z" />
    <glyph glyph-name="ordfeminine" unicode="&#xaa;" horiz-adv-x="936" 
d="M834 580l-263.002 -0.00195312v71c-27.333 -27.333 -55.666 -47.5 -84.999 -60.5s-66.333 -19.5 -111 -19.5c-86 0 -155.667 26.667 -209 80c-52 52 -78 120.333 -78 205c0 46 10.833 88.5 32.5 127.5s55 70.167 100 93.5s100.5 35 166.5 35h178v23
c0 38.667 -10.5 66.667 -31.5 84s-54.833 26 -101.5 26c-33.333 0 -59.333 -4.33301 -78 -13s-39 -24 -61 -46l-168 168c44 44 89.333 74.333 136 91s108.334 25 185.001 25c86 0 157.5 -11.667 214.5 -35s100.167 -58.666 129.5 -105.999s44 -106.666 44 -177.999v-571z
M564.998 908.998l-0.000976562 25.001h-135c-25.333 0 -45.333 -6.5 -60 -19.5s-22 -29.833 -22 -50.5c0 -20 7.5 -36.833 22.5 -50.5s35.5 -20.5 61.5 -20.5c28.667 0 50.834 2.16699 66.501 6.5s29.167 12.166 40.5 23.499c17.333 18 26 46.667 26 86z" />
    <glyph glyph-name="guillemotleft" unicode="&#xab;" horiz-adv-x="1376" 
d="M1253 18l-559 555l559 553v-395l-166 -158l166 -159v-396zM621 18l-560 555l560 553v-395l-162 -158l162 -159v-396z" />
    <glyph glyph-name="logicalnot" unicode="&#xac;" 
d="M1051 180h-316v307h-647v316h963v-623z" />
    <glyph glyph-name="registered" unicode="&#xae;" horiz-adv-x="1683" 
d="M1583 729c0 -99.333 -19.333 -194.668 -58 -286.001s-91.667 -170.666 -159 -237.999s-146.666 -120.333 -237.999 -159s-186.666 -58 -285.999 -58s-194.5 19.167 -285.5 57.5s-170.5 91.333 -238.5 159s-121.333 147.167 -160 238.5s-58 186.666 -58 285.999
s19.333 194.666 58 285.999s92 170.833 160 238.5s147.5 120.667 238.5 159s186.167 57.5 285.5 57.5s194.666 -19.333 285.999 -58s170.666 -91.667 237.999 -159s120.333 -146.666 159 -237.999s58 -186.666 58 -285.999zM1372 728.998
c0 78.667 -13.168 151.5 -39.501 218.5s-63.333 124.667 -111 173s-104 85.666 -169 111.999s-135.167 39.5 -210.5 39.5c-99.333 0 -189.666 -23 -270.999 -69s-145 -110.167 -191 -192.5s-69 -176.166 -69 -281.499c0 -104 23.167 -197.5 69.5 -280.5
s110 -147.5 191 -193.5s171.167 -69 270.5 -69s189.5 23 270.5 69s144.5 110.5 190.5 193.5s69 176.5 69 280.5zM1188 341.998h-240.001l-117 289h-63v-289h-211v774h346c53.333 0 100.333 -11.667 141 -35s71.334 -54 92.001 -92s31 -79 31 -123
c0 -46.667 -12.167 -87.5 -36.5 -122.5s-53.833 -60.833 -88.5 -77.5zM955.998 865.998c0 22 -7.16699 40.5 -21.5 55.5s-34.5 22.5 -60.5 22.5h-106v-156h106c26 0 46.167 7.5 60.5 22.5s21.5 33.5 21.5 55.5z" />
    <glyph glyph-name="macron" unicode="&#xaf;" horiz-adv-x="1024" 
d="M846 1309h-668v215h668v-215z" />
    <glyph glyph-name="degree" unicode="&#xb0;" horiz-adv-x="995" 
d="M899 1094c0 -72 -18.0029 -138.997 -54.0029 -200.997s-85 -111 -147 -147s-128.667 -54 -200 -54c-55.333 0 -106.666 10.167 -153.999 30.5s-90.333 49.833 -129 88.5s-68.167 81.667 -88.5 129s-30.5 98.666 -30.5 153.999c0 71.333 18 138 54 200s85 111 147 147
s129 54 201 54c55.333 0 107.333 -10.333 156 -31s91.334 -49.334 128.001 -86.001s65.334 -79.334 86.001 -128.001s31 -100.667 31 -156zM630.997 1094c0 36.667 -13 68 -39 94s-57.333 39 -94 39s-68 -13 -94 -39s-39 -57.333 -39 -94s13 -68 39 -94s57.333 -39 94 -39
s68 13 94 39s39 57.333 39 94z" />
    <glyph glyph-name="plusminus" unicode="&#xb1;" 
d="M1038 760h-311v-311h-315v311h-312v315h312v311h315v-311h311v-315zM1038 0h-938v315h938v-315z" />
    <glyph glyph-name="acute" unicode="&#xb4;" horiz-adv-x="1024" 
d="M838 1618l-242 -369h-203l101 369h344z" />
    <glyph glyph-name="mu" unicode="&#xb5;" horiz-adv-x="1196" 
d="M1069 0l-327.998 0.000976562v90c-32.667 -32.667 -72.334 -57.834 -119.001 -75.501s-92.334 -26.5 -137.001 -26.5h-22v-344h-336v1458h336v-660c0 -55.333 14.5 -94.333 43.5 -117s59.5 -34 91.5 -34s62.5 11.167 91.5 33.5s43.5 61.5 43.5 117.5v660h336v-1102z" />
    <glyph glyph-name="paragraph" unicode="&#xb6;" horiz-adv-x="1448" 
d="M1300 -356l-335.001 0.000976562v1495h-185v-1495h-336v966c-60 0 -120.167 18.5 -180.5 55.5s-109.166 87.667 -146.499 152s-56 135.166 -56 212.499c0 96 21 176 63 240s99.833 111.333 173.5 142s159.5 46 257.5 46h745v-1814z" />
    <glyph glyph-name="cedilla" unicode="&#xb8;" horiz-adv-x="1024" 
d="M682 -115l-74 -295h-299l137 295h236z" />
    <glyph glyph-name="ordmasculine" unicode="&#xba;" horiz-adv-x="954" 
d="M858 1020c0 -86.667 -6.99902 -154.502 -20.999 -203.502s-39.667 -93.833 -77 -134.5c-20 -21.333 -43 -40.166 -69 -56.499s-56.833 -29.833 -92.5 -40.5s-76.167 -16 -121.5 -16c-118 0 -212 37.667 -282 113c-25.333 27.333 -45 55.833 -59 85.5
s-24.167 64.834 -30.5 105.501s-9.5 89.667 -9.5 147c0 56 3.16699 104.5 9.5 145.5s16.5 76.5 30.5 106.5s33.667 58.667 59 86c69.333 74.667 163.333 112 282 112c65.333 0 121.666 -10.667 168.999 -32s85.333 -48 114 -80c37.333 -40.667 63 -85.5 77 -134.5
s21 -116.833 21 -203.5zM588.001 1020c0 49.333 -2.66699 88.668 -8 118.001s-15.666 51.333 -30.999 66c-16.667 16.667 -40.667 25 -72 25s-55 -8.33301 -71 -25c-15.333 -15.333 -25.666 -37.5 -30.999 -66.5s-8 -68.167 -8 -117.5s2.66699 -88.5 8 -117.5
s15.666 -51.167 30.999 -66.5c16 -16.667 39.667 -25 71 -25s55.333 8.33301 72 25c15.333 14.667 25.666 36.667 30.999 66s8 68.666 8 117.999z" />
    <glyph glyph-name="guillemotright" unicode="&#xbb;" horiz-adv-x="1376" 
d="M1315 573l-559 -555v396l162 159l-162 158v395zM682 573l-559 -555v396l164 159l-164 158v395z" />
    <glyph glyph-name="questiondown" unicode="&#xbf;" horiz-adv-x="1102" 
d="M684 772h-344v330h344v-330zM979 63c0 -89.333 -20.498 -166.666 -61.498 -231.999s-96.5 -115 -166.5 -149s-147 -51 -231 -51c-61.333 0 -119.666 9.5 -174.999 28.5s-104.333 46.5 -147 82.5s-76.167 81.167 -100.5 135.5s-36.5 115.5 -36.5 183.5
c0 49.333 9 94.166 27 134.499s44 83.166 78 128.499l141 178c24.667 28.667 37 60.667 37 96v18h336v-47c0 -45.333 -6.33301 -85.666 -19 -120.999s-34.334 -70.666 -65.001 -105.999l-143 -168c-37.333 -42 -56 -80.333 -56 -115c0 -38 10.667 -68.333 32 -91
s51.666 -34 90.999 -34c41.333 0 72.166 11.667 92.499 35s30.5 54.666 30.5 93.999h336z" />
    <glyph glyph-name="Agrave" unicode="&#xc0;" horiz-adv-x="1337" 
d="M1337 0h-374l-68 217h-449l-71 -217h-375l530 1458h277zM801 516l-123 389l-131 -389h254zM787 1601h-203l-242 369h344z" />
    <glyph glyph-name="Aacute" unicode="&#xc1;" horiz-adv-x="1337" 
d="M1337 0h-374l-68 217h-449l-71 -217h-375l530 1458h277zM801 516l-123 389l-131 -389h254zM994 1970l-242 -369h-203l101 369h344z" />
    <glyph glyph-name="Acircumflex" unicode="&#xc2;" horiz-adv-x="1337" 
d="M1337 0h-374l-68 217h-449l-71 -217h-375l530 1458h277zM801 516l-123 389l-131 -389h254zM1076 1601h-246l-162 170l-162 -170h-246l279 367h258z" />
    <glyph glyph-name="Atilde" unicode="&#xc3;" horiz-adv-x="1337" 
d="M1337 0h-374l-68 217h-449l-71 -217h-375l530 1458h277zM801 516l-123 389l-131 -389h254zM1063 1751c-44.667 -44.667 -86 -77.334 -124 -98.001s-80.667 -31 -128 -31c-32 0 -59.667 2.83301 -83 8.5s-51 17.834 -83 36.501c-40 23.333 -78 35 -114 35
c-20.667 0 -39.667 -3.33301 -57 -10s-38 -22 -62 -46l-139 142c46 46 87.333 79 124 99s78.667 30 126 30c59.333 0 114.333 -15 165 -45c39.333 -23.333 77 -35 113 -35c20.667 0 40.167 3.66699 58.5 11s38.5 22 60.5 44z" />
    <glyph glyph-name="Adieresis" unicode="&#xc4;" horiz-adv-x="1337" 
d="M1337 0h-374l-68 217h-449l-71 -217h-375l530 1458h277zM801 516l-123 389l-131 -389h254zM1037 1599h-275v297h275v-297zM574 1599h-275v297h275v-297z" />
    <glyph glyph-name="Aring" unicode="&#xc5;" horiz-adv-x="1337" 
d="M1337 0h-374l-68 217h-449l-71 -217h-375l530 1458h277zM801 516l-123 389l-131 -389h254zM951 1829c0 -50 -12.666 -97.0029 -37.999 -141.003s-59.833 -78.667 -103.5 -104s-90.834 -38 -141.501 -38c-38 0 -74 7.33301 -108 22s-64.333 35.334 -91 62.001
s-47.334 57 -62.001 91s-22 70 -22 108c0 50 12.667 97 38 141s59.833 78.667 103.5 104s90.834 38 141.501 38c50 0 97 -12.667 141 -38s78.667 -59.666 104 -102.999s38 -90.666 38 -141.999zM774.001 1829c0 28.667 -10.333 53.667 -31 75s-45.667 32 -75 32
s-54.333 -10.667 -75 -32s-31 -46.333 -31 -75c0 -29.333 10.333 -54.333 31 -75s45.667 -31 75 -31s54.333 10.333 75 31s31 45.667 31 75z" />
    <glyph glyph-name="AE" unicode="&#xc6;" horiz-adv-x="2075" 
d="M1968 0h-991v305h-434l-158 -305h-385l758 1458h1210v-319h-633v-244h541v-320h-541v-256h633v-319zM977 604v535l-279 -535h279z" />
    <glyph glyph-name="Ccedilla" unicode="&#xc7;" horiz-adv-x="1247" 
d="M1206 463c-12.667 -77.333 -35.502 -146.496 -68.502 -207.496s-74 -111.167 -123 -150.5s-104.167 -68.666 -165.5 -87.999s-126.666 -29 -195.999 -29c-162 0 -297 54.667 -405 164c-64 64 -104.667 136.667 -122 218s-26 184.666 -26 309.999v49v49
c0 125.333 8.66699 228.833 26 310.5s58 154.5 122 218.5c54.667 54.667 114.667 95.5 180 122.5s140.333 40.5 225 40.5c72.667 0 139.334 -9.83301 200.001 -29.5s115 -49 163 -88s88.5 -88.667 121.5 -149s55.833 -129.833 68.5 -208.5h-364
c-12.667 47.333 -33.167 85.166 -61.5 113.499s-70.166 42.5 -125.499 42.5c-30.667 0 -58.167 -5.66699 -82.5 -17s-43.833 -26 -58.5 -44c-12.667 -16 -22.834 -35.167 -30.501 -57.5s-13.667 -56.333 -18 -102s-6.5 -112.834 -6.5 -201.501
c0 -118 4.33301 -200.833 13 -248.5s22.667 -84.834 42 -111.501c32 -41.333 79 -62 141 -62c54 0 95.5 14.167 124.5 42.5s49.833 66.166 62.5 113.499h364zM787.998 -114.996l-74 -295h-299l137 295h236z" />
    <glyph glyph-name="Egrave" unicode="&#xc8;" horiz-adv-x="1245" 
d="M1139 0h-992v1458h992v-319h-633v-244h541v-320h-541v-256h633v-319zM750 1601h-203l-242 369h344z" />
    <glyph glyph-name="Eacute" unicode="&#xc9;" horiz-adv-x="1245" 
d="M1139 0h-992v1458h992v-319h-633v-244h541v-320h-541v-256h633v-319zM957 1970l-242 -369h-203l101 369h344z" />
    <glyph glyph-name="Ecircumflex" unicode="&#xca;" horiz-adv-x="1245" 
d="M1139 0h-992v1458h992v-319h-633v-244h541v-320h-541v-256h633v-319zM1039 1601h-246l-162 170l-162 -170h-246l279 367h258z" />
    <glyph glyph-name="Edieresis" unicode="&#xcb;" horiz-adv-x="1245" 
d="M1139 0h-992v1458h992v-319h-633v-244h541v-320h-541v-256h633v-319zM1000 1599h-275v297h275v-297zM537 1599h-275v297h275v-297z" />
    <glyph glyph-name="Igrave" unicode="&#xcc;" horiz-adv-x="653" 
d="M506 0h-359v1458h359v-1458zM461 1601h-203l-242 369h344z" />
    <glyph glyph-name="Iacute" unicode="&#xcd;" horiz-adv-x="653" 
d="M506 0h-359v1458h359v-1458zM654 1970l-242 -369h-203l101 369h344z" />
    <glyph glyph-name="Icircumflex" unicode="&#xce;" horiz-adv-x="653" 
d="M506 0h-359v1458h359v-1458zM723 1601h-246l-162 170l-162 -170h-246l279 367h258z" />
    <glyph glyph-name="Idieresis" unicode="&#xcf;" horiz-adv-x="653" 
d="M506 0h-359v1458h359v-1458zM695 1599h-275v297h275v-297zM232 1599h-275v297h275v-297z" />
    <glyph glyph-name="Ntilde" unicode="&#xd1;" horiz-adv-x="1434" 
d="M1286 0h-313l-467 733v-733h-359v1458h314l467 -733v733h358v-1458zM1112 1751c-44.667 -44.667 -86 -77.334 -124 -98.001s-80.667 -31 -128 -31c-32 0 -59.667 2.83301 -83 8.5s-51 17.834 -83 36.501c-40 23.333 -78 35 -114 35c-20.667 0 -39.667 -3.33301 -57 -10
s-38 -22 -62 -46l-139 142c46 46 87.333 79 124 99s78.667 30 126 30c59.333 0 114.333 -15 165 -45c39.333 -23.333 77 -35 113 -35c20.667 0 40.167 3.66699 58.5 11s38.5 22 60.5 44z" />
    <glyph glyph-name="Ograve" unicode="&#xd2;" horiz-adv-x="1311" 
d="M1210 729l0.000976562 -48.998c0 -81.333 -2.83301 -151.333 -8.5 -210s-19.167 -115.334 -40.5 -170.001s-54 -104 -98 -148c-54 -54 -113.5 -94.833 -178.5 -122.5s-141.5 -41.5 -229.5 -41.5c-59.333 0 -112.833 6.16699 -160.5 18.5s-91.667 30.5 -132 54.5
s-78.5 54.333 -114.5 91c-64 64 -104.667 136.667 -122 218s-26 184.666 -26 309.999v49v49c0 125.333 8.66699 228.833 26 310.5s58 154.5 122 218.5c55.333 55.333 115.166 96.333 179.499 123s140.166 40 227.499 40c88 0 164.333 -13.5 229 -40.5
s124.334 -67.833 179.001 -122.5c44 -44 76.667 -93.5 98 -148.5s34.833 -111.833 40.5 -170.5s8.5 -128.667 8.5 -210v-49zM852.001 729.002c0 124 -4.16602 208.664 -12.499 253.997s-21.833 80 -40.5 104c-13.333 18.667 -32.833 34 -58.5 46s-54.167 18 -85.5 18
c-30.667 0 -58.334 -5.83301 -83.001 -17.5s-44.667 -27.167 -60 -46.5c-12 -15.333 -21.833 -34.166 -29.5 -56.499s-13.5 -56.666 -17.5 -102.999s-6 -112.5 -6 -198.5c0 -85.333 2 -151.166 6 -197.499s9.83301 -80.5 17.5 -102.5s17.5 -40.667 29.5 -56
c34 -44 81.667 -66 143 -66c62 0 110 22 144 66c18.667 26 32.167 60.833 40.5 104.5s12.5 127.5 12.5 251.5zM774.002 1601h-203l-242 369h344z" />
    <glyph glyph-name="Oacute" unicode="&#xd3;" horiz-adv-x="1311" 
d="M1210 729l0.000976562 -48.998c0 -81.333 -2.83301 -151.333 -8.5 -210s-19.167 -115.334 -40.5 -170.001s-54 -104 -98 -148c-54 -54 -113.5 -94.833 -178.5 -122.5s-141.5 -41.5 -229.5 -41.5c-59.333 0 -112.833 6.16699 -160.5 18.5s-91.667 30.5 -132 54.5
s-78.5 54.333 -114.5 91c-64 64 -104.667 136.667 -122 218s-26 184.666 -26 309.999v49v49c0 125.333 8.66699 228.833 26 310.5s58 154.5 122 218.5c55.333 55.333 115.166 96.333 179.499 123s140.166 40 227.499 40c88 0 164.333 -13.5 229 -40.5
s124.334 -67.833 179.001 -122.5c44 -44 76.667 -93.5 98 -148.5s34.833 -111.833 40.5 -170.5s8.5 -128.667 8.5 -210v-49zM852.001 729.002c0 124 -4.16602 208.664 -12.499 253.997s-21.833 80 -40.5 104c-13.333 18.667 -32.833 34 -58.5 46s-54.167 18 -85.5 18
c-30.667 0 -58.334 -5.83301 -83.001 -17.5s-44.667 -27.167 -60 -46.5c-12 -15.333 -21.833 -34.166 -29.5 -56.499s-13.5 -56.666 -17.5 -102.999s-6 -112.5 -6 -198.5c0 -85.333 2 -151.166 6 -197.499s9.83301 -80.5 17.5 -102.5s17.5 -40.667 29.5 -56
c34 -44 81.667 -66 143 -66c62 0 110 22 144 66c18.667 26 32.167 60.833 40.5 104.5s12.5 127.5 12.5 251.5zM981.002 1970l-242 -369h-203l101 369h344z" />
    <glyph glyph-name="Ocircumflex" unicode="&#xd4;" horiz-adv-x="1311" 
d="M1210 729l0.000976562 -48.998c0 -81.333 -2.83301 -151.333 -8.5 -210s-19.167 -115.334 -40.5 -170.001s-54 -104 -98 -148c-54 -54 -113.5 -94.833 -178.5 -122.5s-141.5 -41.5 -229.5 -41.5c-59.333 0 -112.833 6.16699 -160.5 18.5s-91.667 30.5 -132 54.5
s-78.5 54.333 -114.5 91c-64 64 -104.667 136.667 -122 218s-26 184.666 -26 309.999v49v49c0 125.333 8.66699 228.833 26 310.5s58 154.5 122 218.5c55.333 55.333 115.166 96.333 179.499 123s140.166 40 227.499 40c88 0 164.333 -13.5 229 -40.5
s124.334 -67.833 179.001 -122.5c44 -44 76.667 -93.5 98 -148.5s34.833 -111.833 40.5 -170.5s8.5 -128.667 8.5 -210v-49zM852.001 729.002c0 124 -4.16602 208.664 -12.499 253.997s-21.833 80 -40.5 104c-13.333 18.667 -32.833 34 -58.5 46s-54.167 18 -85.5 18
c-30.667 0 -58.334 -5.83301 -83.001 -17.5s-44.667 -27.167 -60 -46.5c-12 -15.333 -21.833 -34.166 -29.5 -56.499s-13.5 -56.666 -17.5 -102.999s-6 -112.5 -6 -198.5c0 -85.333 2 -151.166 6 -197.499s9.83301 -80.5 17.5 -102.5s17.5 -40.667 29.5 -56
c34 -44 81.667 -66 143 -66c62 0 110 22 144 66c18.667 26 32.167 60.833 40.5 104.5s12.5 127.5 12.5 251.5zM1063 1601h-246l-162 170l-162 -170h-246l279 367h258z" />
    <glyph glyph-name="Otilde" unicode="&#xd5;" horiz-adv-x="1311" 
d="M1210 729l0.000976562 -48.998c0 -81.333 -2.83301 -151.333 -8.5 -210s-19.167 -115.334 -40.5 -170.001s-54 -104 -98 -148c-54 -54 -113.5 -94.833 -178.5 -122.5s-141.5 -41.5 -229.5 -41.5c-59.333 0 -112.833 6.16699 -160.5 18.5s-91.667 30.5 -132 54.5
s-78.5 54.333 -114.5 91c-64 64 -104.667 136.667 -122 218s-26 184.666 -26 309.999v49v49c0 125.333 8.66699 228.833 26 310.5s58 154.5 122 218.5c55.333 55.333 115.166 96.333 179.499 123s140.166 40 227.499 40c88 0 164.333 -13.5 229 -40.5
s124.334 -67.833 179.001 -122.5c44 -44 76.667 -93.5 98 -148.5s34.833 -111.833 40.5 -170.5s8.5 -128.667 8.5 -210v-49zM852.001 729.002c0 124 -4.16602 208.664 -12.499 253.997s-21.833 80 -40.5 104c-13.333 18.667 -32.833 34 -58.5 46s-54.167 18 -85.5 18
c-30.667 0 -58.334 -5.83301 -83.001 -17.5s-44.667 -27.167 -60 -46.5c-12 -15.333 -21.833 -34.166 -29.5 -56.499s-13.5 -56.666 -17.5 -102.999s-6 -112.5 -6 -198.5c0 -85.333 2 -151.166 6 -197.499s9.83301 -80.5 17.5 -102.5s17.5 -40.667 29.5 -56
c34 -44 81.667 -66 143 -66c62 0 110 22 144 66c18.667 26 32.167 60.833 40.5 104.5s12.5 127.5 12.5 251.5zM1050 1751c-44.667 -44.667 -86 -77.334 -124 -98.001s-80.667 -31 -128 -31c-32 0 -59.667 2.83301 -83 8.5s-51 17.834 -83 36.501c-40 23.333 -78 35 -114 35
c-20.667 0 -39.667 -3.33301 -57 -10s-38 -22 -62 -46l-139 142c46 46 87.333 79 124 99s78.667 30 126 30c59.333 0 114.333 -15 165 -45c39.333 -23.333 77 -35 113 -35c20.667 0 40.167 3.66699 58.5 11s38.5 22 60.5 44z" />
    <glyph glyph-name="Odieresis" unicode="&#xd6;" horiz-adv-x="1311" 
d="M1210 729l0.000976562 -48.998c0 -81.333 -2.83301 -151.333 -8.5 -210s-19.167 -115.334 -40.5 -170.001s-54 -104 -98 -148c-54 -54 -113.5 -94.833 -178.5 -122.5s-141.5 -41.5 -229.5 -41.5c-59.333 0 -112.833 6.16699 -160.5 18.5s-91.667 30.5 -132 54.5
s-78.5 54.333 -114.5 91c-64 64 -104.667 136.667 -122 218s-26 184.666 -26 309.999v49v49c0 125.333 8.66699 228.833 26 310.5s58 154.5 122 218.5c55.333 55.333 115.166 96.333 179.499 123s140.166 40 227.499 40c88 0 164.333 -13.5 229 -40.5
s124.334 -67.833 179.001 -122.5c44 -44 76.667 -93.5 98 -148.5s34.833 -111.833 40.5 -170.5s8.5 -128.667 8.5 -210v-49zM852.001 729.002c0 124 -4.16602 208.664 -12.499 253.997s-21.833 80 -40.5 104c-13.333 18.667 -32.833 34 -58.5 46s-54.167 18 -85.5 18
c-30.667 0 -58.334 -5.83301 -83.001 -17.5s-44.667 -27.167 -60 -46.5c-12 -15.333 -21.833 -34.166 -29.5 -56.499s-13.5 -56.666 -17.5 -102.999s-6 -112.5 -6 -198.5c0 -85.333 2 -151.166 6 -197.499s9.83301 -80.5 17.5 -102.5s17.5 -40.667 29.5 -56
c34 -44 81.667 -66 143 -66c62 0 110 22 144 66c18.667 26 32.167 60.833 40.5 104.5s12.5 127.5 12.5 251.5zM1024 1599h-275v297h275v-297zM561.002 1599h-275v297h275v-297z" />
    <glyph glyph-name="Oslash" unicode="&#xd8;" horiz-adv-x="1311" 
d="M1210 729l0.00195312 -48.998c0 -81.333 -2.83301 -151.333 -8.5 -210s-19.167 -115.334 -40.5 -170.001s-54 -104 -98 -148c-54 -54 -113.5 -94.833 -178.5 -122.5s-141.5 -41.5 -229.5 -41.5c-82 0 -153.667 12.333 -215 37l-55 -115h-242l113 233l-8 9
c-64 64 -104.667 136.667 -122 218s-26 184.666 -26 309.999v49v49c0 125.333 8.66699 228.833 26 310.5s58 154.5 122 218.5c55.333 55.333 115.166 96.333 179.499 123s140.166 40 227.499 40c82 0 153.667 -12 215 -36l56 114h241l-112 -233l8 -8
c44 -44 76.667 -93.5 98 -148.5s34.833 -111.833 40.5 -170.5s8.5 -128.667 8.5 -210v-49zM745.002 1130c-26 14 -55.999 20.9971 -89.999 20.9971c-30.667 0 -58.334 -5.83301 -83.001 -17.5s-44.667 -27.167 -60 -46.5c-12 -15.333 -21.833 -34.166 -29.5 -56.499
s-13.5 -56.666 -17.5 -102.999s-6 -112.5 -6 -198.5c0 -79.333 2 -142.666 6 -189.999zM852.003 728.999c0 79.333 -2 143 -6 191l-281 -590c25.333 -15.333 55.333 -23 90 -23c62 0 110 22 144 66c18.667 26 32.167 60.833 40.5 104.5s12.5 127.5 12.5 251.5z" />
    <glyph glyph-name="Ugrave" unicode="&#xd9;" horiz-adv-x="1352" 
d="M1229 512c0 -76.667 -14.335 -147.666 -43.002 -212.999s-68.667 -121.333 -120 -168s-110.666 -82.167 -177.999 -106.5s-138.666 -36.5 -213.999 -36.5c-99.333 0 -191.5 21.667 -276.5 65s-152 104.833 -201 184.5s-73.5 171.167 -73.5 274.5v946h358v-938
c0 -66.667 17.167 -118.834 51.5 -156.501s81.5 -56.5 141.5 -56.5c38.667 0 73 8.33301 103 25s53 41 69 73s24 70.333 24 115v938h359v-946zM794.998 1601h-203l-242 369h344z" />
    <glyph glyph-name="Uacute" unicode="&#xda;" horiz-adv-x="1352" 
d="M1229 512c0 -76.667 -14.335 -147.666 -43.002 -212.999s-68.667 -121.333 -120 -168s-110.666 -82.167 -177.999 -106.5s-138.666 -36.5 -213.999 -36.5c-99.333 0 -191.5 21.667 -276.5 65s-152 104.833 -201 184.5s-73.5 171.167 -73.5 274.5v946h358v-938
c0 -66.667 17.167 -118.834 51.5 -156.501s81.5 -56.5 141.5 -56.5c38.667 0 73 8.33301 103 25s53 41 69 73s24 70.333 24 115v938h359v-946zM1002 1970l-242 -369h-203l101 369h344z" />
    <glyph glyph-name="Ucircumflex" unicode="&#xdb;" horiz-adv-x="1352" 
d="M1229 512c0 -76.667 -14.335 -147.666 -43.002 -212.999s-68.667 -121.333 -120 -168s-110.666 -82.167 -177.999 -106.5s-138.666 -36.5 -213.999 -36.5c-99.333 0 -191.5 21.667 -276.5 65s-152 104.833 -201 184.5s-73.5 171.167 -73.5 274.5v946h358v-938
c0 -66.667 17.167 -118.834 51.5 -156.501s81.5 -56.5 141.5 -56.5c38.667 0 73 8.33301 103 25s53 41 69 73s24 70.333 24 115v938h359v-946zM1084 1601h-246l-162 170l-162 -170h-246l279 367h258z" />
    <glyph glyph-name="Udieresis" unicode="&#xdc;" horiz-adv-x="1352" 
d="M1229 512c0 -76.667 -14.335 -147.666 -43.002 -212.999s-68.667 -121.333 -120 -168s-110.666 -82.167 -177.999 -106.5s-138.666 -36.5 -213.999 -36.5c-99.333 0 -191.5 21.667 -276.5 65s-152 104.833 -201 184.5s-73.5 171.167 -73.5 274.5v946h358v-938
c0 -66.667 17.167 -118.834 51.5 -156.501s81.5 -56.5 141.5 -56.5c38.667 0 73 8.33301 103 25s53 41 69 73s24 70.333 24 115v938h359v-946zM1045 1599h-275v297h275v-297zM581.998 1599h-275v297h275v-297z" />
    <glyph glyph-name="germandbls" unicode="&#xdf;" horiz-adv-x="1196" 
d="M1094 354c0 -114.667 -28.668 -202.001 -86.001 -262.001c-31.333 -30 -69.833 -52.833 -115.5 -68.5s-101.5 -23.5 -167.5 -23.5h-107v283h39c32 0 56 8 72 24c18 16 27 40.667 27 74v264c0 31.333 -8.33301 55.333 -25 72c-15.333 17.333 -40 26 -74 26h-39v258h48
c60 0 90 28.667 90 86c0 26 -8.33301 46 -25 60c-22.667 20.667 -60.334 31 -113.001 31c-57.333 0 -97.166 -11.5 -119.499 -34.5s-33.5 -59.5 -33.5 -109.5v-1034h-338v1063c0 72.667 12.333 135.167 37 187.5s58.834 94.5 102.501 126.5s95 55.5 154 70.5
s124.833 22.5 197.5 22.5s138 -7.33301 196 -22s107.667 -37.167 149 -67.5s73.5 -69 96.5 -116s34.5 -101.833 34.5 -164.5c0 -101.333 -41.667 -175.666 -125 -222.999c37.333 -17.333 67.5 -41.833 90.5 -73.5s34.5 -77.5 34.5 -137.5v-312z" />
    <glyph glyph-name="agrave" unicode="&#xe0;" horiz-adv-x="1098" 
d="M989 0l-327.001 -0.00195312v90c-36.667 -35.333 -72.667 -60.833 -108 -76.5s-81.333 -23.5 -138 -23.5c-110.667 0 -198.667 32.667 -264 98c-64.667 64.667 -97 150.667 -97 258c0 58.667 13.333 112 40 160s68.167 86.667 124.5 116s126.5 44 210.5 44h223v28
c0 50.667 -12.833 86.167 -38.5 106.5s-68.167 30.5 -127.5 30.5c-41.333 0 -74.166 -5.33301 -98.499 -16s-50.166 -29.667 -77.499 -57l-209 209c57.333 56.667 115.166 95.334 173.499 116.001s134.5 31 228.5 31c158.667 0 279.167 -33.167 361.5 -99.5
s123.5 -166.166 123.5 -299.499v-715zM652.999 413.998v28h-170c-32 0 -57.667 -8 -77 -24s-29 -37.333 -29 -64c0 -26 9.66699 -47.833 29 -65.5s46.333 -26.5 81 -26.5c32.667 0 58.667 2.5 78 7.5s38 16.167 56 33.5c21.333 20.667 32 57.667 32 111zM663.999 1249h-203
l-242 369h344z" />
    <glyph glyph-name="aacute" unicode="&#xe1;" horiz-adv-x="1098" 
d="M989 0l-327.001 -0.00195312v90c-36.667 -35.333 -72.667 -60.833 -108 -76.5s-81.333 -23.5 -138 -23.5c-110.667 0 -198.667 32.667 -264 98c-64.667 64.667 -97 150.667 -97 258c0 58.667 13.333 112 40 160s68.167 86.667 124.5 116s126.5 44 210.5 44h223v28
c0 50.667 -12.833 86.167 -38.5 106.5s-68.167 30.5 -127.5 30.5c-41.333 0 -74.166 -5.33301 -98.499 -16s-50.166 -29.667 -77.499 -57l-209 209c57.333 56.667 115.166 95.334 173.499 116.001s134.5 31 228.5 31c158.667 0 279.167 -33.167 361.5 -99.5
s123.5 -166.166 123.5 -299.499v-715zM652.999 413.998v28h-170c-32 0 -57.667 -8 -77 -24s-29 -37.333 -29 -64c0 -26 9.66699 -47.833 29 -65.5s46.333 -26.5 81 -26.5c32.667 0 58.667 2.5 78 7.5s38 16.167 56 33.5c21.333 20.667 32 57.667 32 111zM870.999 1618
l-242 -369h-203l101 369h344z" />
    <glyph glyph-name="acircumflex" unicode="&#xe2;" horiz-adv-x="1098" 
d="M989 0l-327.001 -0.00195312v90c-36.667 -35.333 -72.667 -60.833 -108 -76.5s-81.333 -23.5 -138 -23.5c-110.667 0 -198.667 32.667 -264 98c-64.667 64.667 -97 150.667 -97 258c0 58.667 13.333 112 40 160s68.167 86.667 124.5 116s126.5 44 210.5 44h223v28
c0 50.667 -12.833 86.167 -38.5 106.5s-68.167 30.5 -127.5 30.5c-41.333 0 -74.166 -5.33301 -98.499 -16s-50.166 -29.667 -77.499 -57l-209 209c57.333 56.667 115.166 95.334 173.499 116.001s134.5 31 228.5 31c158.667 0 279.167 -33.167 361.5 -99.5
s123.5 -166.166 123.5 -299.499v-715zM652.999 413.998v28h-170c-32 0 -57.667 -8 -77 -24s-29 -37.333 -29 -64c0 -26 9.66699 -47.833 29 -65.5s46.333 -26.5 81 -26.5c32.667 0 58.667 2.5 78 7.5s38 16.167 56 33.5c21.333 20.667 32 57.667 32 111zM952.999 1249h-246
l-162 170l-162 -170h-246l279 367h258z" />
    <glyph glyph-name="atilde" unicode="&#xe3;" horiz-adv-x="1098" 
d="M989 0l-327.001 -0.00195312v90c-36.667 -35.333 -72.667 -60.833 -108 -76.5s-81.333 -23.5 -138 -23.5c-110.667 0 -198.667 32.667 -264 98c-64.667 64.667 -97 150.667 -97 258c0 58.667 13.333 112 40 160s68.167 86.667 124.5 116s126.5 44 210.5 44h223v28
c0 50.667 -12.833 86.167 -38.5 106.5s-68.167 30.5 -127.5 30.5c-41.333 0 -74.166 -5.33301 -98.499 -16s-50.166 -29.667 -77.499 -57l-209 209c57.333 56.667 115.166 95.334 173.499 116.001s134.5 31 228.5 31c158.667 0 279.167 -33.167 361.5 -99.5
s123.5 -166.166 123.5 -299.499v-715zM652.999 413.998v28h-170c-32 0 -57.667 -8 -77 -24s-29 -37.333 -29 -64c0 -26 9.66699 -47.833 29 -65.5s46.333 -26.5 81 -26.5c32.667 0 58.667 2.5 78 7.5s38 16.167 56 33.5c21.333 20.667 32 57.667 32 111zM939.999 1399
c-44.667 -44.667 -86 -77.334 -124 -98.001s-80.667 -31 -128 -31c-32 0 -59.667 2.83301 -83 8.5s-51 17.834 -83 36.501c-40 23.333 -78 35 -114 35c-20.667 0 -39.667 -3.33301 -57 -10s-38 -22 -62 -46l-139 142c46 46 87.333 79 124 99s78.667 30 126 30
c59.333 0 114.333 -15 165 -45c39.333 -23.333 77 -35 113 -35c20.667 0 40.167 3.66699 58.5 11s38.5 22 60.5 44z" />
    <glyph glyph-name="adieresis" unicode="&#xe4;" horiz-adv-x="1098" 
d="M989 0l-327.001 -0.00195312v90c-36.667 -35.333 -72.667 -60.833 -108 -76.5s-81.333 -23.5 -138 -23.5c-110.667 0 -198.667 32.667 -264 98c-64.667 64.667 -97 150.667 -97 258c0 58.667 13.333 112 40 160s68.167 86.667 124.5 116s126.5 44 210.5 44h223v28
c0 50.667 -12.833 86.167 -38.5 106.5s-68.167 30.5 -127.5 30.5c-41.333 0 -74.166 -5.33301 -98.499 -16s-50.166 -29.667 -77.499 -57l-209 209c57.333 56.667 115.166 95.334 173.499 116.001s134.5 31 228.5 31c158.667 0 279.167 -33.167 361.5 -99.5
s123.5 -166.166 123.5 -299.499v-715zM652.999 413.998v28h-170c-32 0 -57.667 -8 -77 -24s-29 -37.333 -29 -64c0 -26 9.66699 -47.833 29 -65.5s46.333 -26.5 81 -26.5c32.667 0 58.667 2.5 78 7.5s38 16.167 56 33.5c21.333 20.667 32 57.667 32 111zM913.999 1247h-275
v297h275v-297zM450.999 1247h-275v297h275v-297z" />
    <glyph glyph-name="aring" unicode="&#xe5;" horiz-adv-x="1098" 
d="M989 0l-327.001 -0.00195312v90c-36.667 -35.333 -72.667 -60.833 -108 -76.5s-81.333 -23.5 -138 -23.5c-110.667 0 -198.667 32.667 -264 98c-64.667 64.667 -97 150.667 -97 258c0 58.667 13.333 112 40 160s68.167 86.667 124.5 116s126.5 44 210.5 44h223v28
c0 50.667 -12.833 86.167 -38.5 106.5s-68.167 30.5 -127.5 30.5c-41.333 0 -74.166 -5.33301 -98.499 -16s-50.166 -29.667 -77.499 -57l-209 209c57.333 56.667 115.166 95.334 173.499 116.001s134.5 31 228.5 31c158.667 0 279.167 -33.167 361.5 -99.5
s123.5 -166.166 123.5 -299.499v-715zM652.999 413.998v28h-170c-32 0 -57.667 -8 -77 -24s-29 -37.333 -29 -64c0 -26 9.66699 -47.833 29 -65.5s46.333 -26.5 81 -26.5c32.667 0 58.667 2.5 78 7.5s38 16.167 56 33.5c21.333 20.667 32 57.667 32 111zM827.999 1497
c0 -50 -12.666 -97.0029 -37.999 -141.003s-59.833 -78.667 -103.5 -104s-90.834 -38 -141.501 -38c-38 0 -74 7.33301 -108 22s-64.333 35.334 -91 62.001s-47.334 57 -62.001 91s-22 70 -22 108c0 50 12.667 97 38 141s59.833 78.667 103.5 104s90.834 38 141.501 38
c50 0 97 -12.667 141 -38s78.667 -59.666 104 -102.999s38 -90.666 38 -141.999zM651 1497c0 28.667 -10.333 53.667 -31 75s-45.667 32 -75 32s-54.333 -10.667 -75 -32s-31 -46.333 -31 -75c0 -29.333 10.333 -54.333 31 -75s45.667 -31 75 -31s54.333 10.333 75 31
s31 45.667 31 75z" />
    <glyph glyph-name="ae" unicode="&#xe6;" horiz-adv-x="1720" 
d="M1642 442l-658.999 0.00195312c0 -47.333 17.667 -87.833 53 -121.5s82.666 -50.5 141.999 -50.5c54.667 0 98.167 7.33301 130.5 22s64.5 38 96.5 70l201 -200c-60.667 -60.667 -122.5 -104.834 -185.5 -132.501s-143.833 -41.5 -242.5 -41.5
c-168.667 0 -297 44.333 -385 133c-62 -56.667 -120.833 -93 -176.5 -109s-122.5 -24 -200.5 -24c-109.333 0 -197.333 33.333 -264 100c-64.667 64.667 -97 150.667 -97 258c0 58.667 13.333 112 40 160s68.167 86.667 124.5 116s126.5 44 210.5 44h223v28
c0 50.667 -12.833 86.167 -38.5 106.5s-68.167 30.5 -127.5 30.5c-41.333 0 -74.166 -5.33301 -98.499 -16s-50.166 -29.667 -77.499 -57l-209 209c57.333 56.667 115.166 95.334 173.499 116.001s134.5 31 228.5 31c151.333 0 267.333 -30.667 348 -92
c80.667 61.333 179 92 295 92c79.333 0 149.666 -13.333 210.999 -40s113 -63.834 155 -111.501s74 -103.334 96 -167.001s33 -131.5 33 -203.5v-150zM1311 666.002c0 32.667 -6.33105 61.334 -18.998 86.001c-10.667 25.333 -28.334 46 -53.001 62s-55.334 24 -92.001 24
s-67.167 -7.83301 -91.5 -23.5s-42.5 -36.5 -54.5 -62.5c-12 -24.667 -18 -53.334 -18 -86.001h328zM653.003 414.002v28h-170c-32 0 -57.667 -8 -77 -24s-29 -37.333 -29 -64c0 -26 9.66699 -47.833 29 -65.5s46.333 -26.5 81 -26.5c32.667 0 58.667 2.5 78 7.5
s38 16.167 56 33.5c21.333 20.667 32 57.667 32 111z" />
    <glyph glyph-name="ccedilla" unicode="&#xe7;" horiz-adv-x="973" 
d="M936 129c-29.333 -29.333 -62.832 -54.832 -100.499 -76.499s-78.834 -37.834 -123.501 -48.501s-91 -16 -139 -16c-78 0 -153.833 15 -227.5 45s-136.667 87.333 -189 172s-78.5 200 -78.5 346s26.167 261.333 78.5 346s115.333 142 189 172s149.5 45 227.5 45
c74.667 0 142.334 -12 203.001 -36s114 -59 160 -105l-227 -228c-44 44 -89.333 66 -136 66c-40.667 0 -75.334 -14.333 -104.001 -43c-36.667 -38.667 -55 -111 -55 -217s18.333 -178.333 55 -217c28.667 -28.667 63.334 -43 104.001 -43
c47.333 0 92.666 21.667 135.999 65zM682.001 -114.999l-74 -295h-299l137 295h236z" />
    <glyph glyph-name="egrave" unicode="&#xe8;" horiz-adv-x="1145" 
d="M1067 442l-658.999 0.00195312c0 -48 17.5 -88.667 52.5 -122s82.167 -50 141.5 -50c56 0 99.833 7.33301 131.5 22s63.5 38 95.5 70l201 -200c-60.667 -60.667 -122.334 -104.834 -185.001 -132.501s-143.667 -41.5 -243 -41.5c-349.333 0 -524 187.667 -524 563
c0 176.667 45.5 314.667 136.5 414s209.833 149 356.5 149c103.333 0 192.5 -23 267.5 -69s131.833 -108.333 170.5 -187s58 -167.334 58 -266.001v-150zM735.001 666.002c0 32.667 -6 61.334 -18 86.001c-10.667 24.667 -28.5 45.167 -53.5 61.5s-55.833 24.5 -92.5 24.5
s-67.5 -8.16699 -92.5 -24.5s-42.5 -36.833 -52.5 -61.5c-12 -24.667 -18 -53.334 -18 -86.001h327zM699.001 1249h-203l-242 369h344z" />
    <glyph glyph-name="eacute" unicode="&#xe9;" horiz-adv-x="1145" 
d="M1067 442l-658.999 0.00195312c0 -48 17.5 -88.667 52.5 -122s82.167 -50 141.5 -50c56 0 99.833 7.33301 131.5 22s63.5 38 95.5 70l201 -200c-60.667 -60.667 -122.334 -104.834 -185.001 -132.501s-143.667 -41.5 -243 -41.5c-349.333 0 -524 187.667 -524 563
c0 176.667 45.5 314.667 136.5 414s209.833 149 356.5 149c103.333 0 192.5 -23 267.5 -69s131.833 -108.333 170.5 -187s58 -167.334 58 -266.001v-150zM735.001 666.002c0 32.667 -6 61.334 -18 86.001c-10.667 24.667 -28.5 45.167 -53.5 61.5s-55.833 24.5 -92.5 24.5
s-67.5 -8.16699 -92.5 -24.5s-42.5 -36.833 -52.5 -61.5c-12 -24.667 -18 -53.334 -18 -86.001h327zM906.001 1618l-242 -369h-203l101 369h344z" />
    <glyph glyph-name="ecircumflex" unicode="&#xea;" horiz-adv-x="1145" 
d="M1067 442l-658.999 0.00195312c0 -48 17.5 -88.667 52.5 -122s82.167 -50 141.5 -50c56 0 99.833 7.33301 131.5 22s63.5 38 95.5 70l201 -200c-60.667 -60.667 -122.334 -104.834 -185.001 -132.501s-143.667 -41.5 -243 -41.5c-349.333 0 -524 187.667 -524 563
c0 176.667 45.5 314.667 136.5 414s209.833 149 356.5 149c103.333 0 192.5 -23 267.5 -69s131.833 -108.333 170.5 -187s58 -167.334 58 -266.001v-150zM735.001 666.002c0 32.667 -6 61.334 -18 86.001c-10.667 24.667 -28.5 45.167 -53.5 61.5s-55.833 24.5 -92.5 24.5
s-67.5 -8.16699 -92.5 -24.5s-42.5 -36.833 -52.5 -61.5c-12 -24.667 -18 -53.334 -18 -86.001h327zM988.001 1249h-246l-162 170l-162 -170h-246l279 367h258z" />
    <glyph glyph-name="edieresis" unicode="&#xeb;" horiz-adv-x="1145" 
d="M1067 442l-658.999 0.00195312c0 -48 17.5 -88.667 52.5 -122s82.167 -50 141.5 -50c56 0 99.833 7.33301 131.5 22s63.5 38 95.5 70l201 -200c-60.667 -60.667 -122.334 -104.834 -185.001 -132.501s-143.667 -41.5 -243 -41.5c-349.333 0 -524 187.667 -524 563
c0 176.667 45.5 314.667 136.5 414s209.833 149 356.5 149c103.333 0 192.5 -23 267.5 -69s131.833 -108.333 170.5 -187s58 -167.334 58 -266.001v-150zM735.001 666.002c0 32.667 -6 61.334 -18 86.001c-10.667 24.667 -28.5 45.167 -53.5 61.5s-55.833 24.5 -92.5 24.5
s-67.5 -8.16699 -92.5 -24.5s-42.5 -36.833 -52.5 -61.5c-12 -24.667 -18 -53.334 -18 -86.001h327zM949.001 1247h-275v297h275v-297zM486.001 1247h-275v297h275v-297z" />
    <glyph glyph-name="igrave" unicode="&#xec;" horiz-adv-x="590" 
d="M463 0h-336v1102h336v-1102zM453 1249h-203l-242 369h344z" />
    <glyph glyph-name="iacute" unicode="&#xed;" horiz-adv-x="590" 
d="M463 0h-336v1102h336v-1102zM584 1618l-242 -369h-203l101 369h344z" />
    <glyph glyph-name="icircumflex" unicode="&#xee;" horiz-adv-x="590" 
d="M463 0h-336v1102h336v-1102zM703 1249h-246l-162 170l-162 -170h-246l279 367h258z" />
    <glyph glyph-name="idieresis" unicode="&#xef;" horiz-adv-x="590" 
d="M463 0h-336v1102h336v-1102zM668 1247h-275v297h275v-297zM205 1247h-275v297h275v-297z" />
    <glyph glyph-name="ntilde" unicode="&#xf1;" horiz-adv-x="1186" 
d="M1069 0l-335.999 0.000976562v659c0 56.667 -14.5 96.167 -43.5 118.5s-59.5 33.5 -91.5 33.5s-62.5 -11.333 -91.5 -34s-43.5 -62 -43.5 -118v-659h-336v1102h328v-90c32 32 71.5 57 118.5 75s92.833 27 137.5 27c102 0 184.333 -31.333 247 -94
c43.333 -42 72.666 -88.333 87.999 -139s23 -109.334 23 -176.001v-705zM993.001 1399c-44.667 -44.667 -86 -77.334 -124 -98.001s-80.667 -31 -128 -31c-32 0 -59.667 2.83301 -83 8.5s-51 17.834 -83 36.501c-40 23.333 -78 35 -114 35
c-20.667 0 -39.667 -3.33301 -57 -10s-38 -22 -62 -46l-139 142c46 46 87.333 79 124 99s78.667 30 126 30c59.333 0 114.333 -15 165 -45c39.333 -23.333 77 -35 113 -35c20.667 0 40.167 3.66699 58.5 11s38.5 22 60.5 44z" />
    <glyph glyph-name="ograve" unicode="&#xf2;" horiz-adv-x="1126" 
d="M1038 551c0 -108.667 -8.66602 -193.835 -25.999 -255.502s-48.666 -117.167 -93.999 -166.5c-88.667 -94 -207 -141 -355 -141c-148.667 0 -266.667 47 -354 141c-30 32 -54 67 -72 105s-30.667 81.5 -38 130.5s-11 111.167 -11 186.5c0 74.667 3.66699 136.5 11 185.5
s20 92.333 38 130s42 73.167 72 106.5c38.667 40.667 87 74.334 145 101.001s127.667 40 209 40s151.166 -13.167 209.499 -39.5s106.833 -60.166 145.5 -101.499c45.333 -49.333 76.666 -105 93.999 -167s26 -147 26 -255zM702.001 550.999c0 64 -3.16699 113.5 -9.5 148.5
s-19.5 61.833 -39.5 80.5c-20 20.667 -50 31 -90 31c-39.333 0 -69.333 -10.333 -90 -31c-20 -20 -33.167 -48.5 -39.5 -85.5s-9.5 -84.833 -9.5 -143.5s3.16699 -106.167 9.5 -142.5s19.5 -65.166 39.5 -86.499c20.667 -20.667 50.667 -31 90 -31c40 0 70 10.167 90 30.5
s33.167 47.666 39.5 81.999s9.5 83.5 9.5 147.5zM682.001 1249h-203l-242 369h344z" />
    <glyph glyph-name="oacute" unicode="&#xf3;" horiz-adv-x="1126" 
d="M1038 551c0 -108.667 -8.66602 -193.835 -25.999 -255.502s-48.666 -117.167 -93.999 -166.5c-88.667 -94 -207 -141 -355 -141c-148.667 0 -266.667 47 -354 141c-30 32 -54 67 -72 105s-30.667 81.5 -38 130.5s-11 111.167 -11 186.5c0 74.667 3.66699 136.5 11 185.5
s20 92.333 38 130s42 73.167 72 106.5c38.667 40.667 87 74.334 145 101.001s127.667 40 209 40s151.166 -13.167 209.499 -39.5s106.833 -60.166 145.5 -101.499c45.333 -49.333 76.666 -105 93.999 -167s26 -147 26 -255zM702.001 550.999c0 64 -3.16699 113.5 -9.5 148.5
s-19.5 61.833 -39.5 80.5c-20 20.667 -50 31 -90 31c-39.333 0 -69.333 -10.333 -90 -31c-20 -20 -33.167 -48.5 -39.5 -85.5s-9.5 -84.833 -9.5 -143.5s3.16699 -106.167 9.5 -142.5s19.5 -65.166 39.5 -86.499c20.667 -20.667 50.667 -31 90 -31c40 0 70 10.167 90 30.5
s33.167 47.666 39.5 81.999s9.5 83.5 9.5 147.5zM889.001 1618l-242 -369h-203l101 369h344z" />
    <glyph glyph-name="ocircumflex" unicode="&#xf4;" horiz-adv-x="1126" 
d="M1038 551c0 -108.667 -8.66602 -193.835 -25.999 -255.502s-48.666 -117.167 -93.999 -166.5c-88.667 -94 -207 -141 -355 -141c-148.667 0 -266.667 47 -354 141c-30 32 -54 67 -72 105s-30.667 81.5 -38 130.5s-11 111.167 -11 186.5c0 74.667 3.66699 136.5 11 185.5
s20 92.333 38 130s42 73.167 72 106.5c38.667 40.667 87 74.334 145 101.001s127.667 40 209 40s151.166 -13.167 209.499 -39.5s106.833 -60.166 145.5 -101.499c45.333 -49.333 76.666 -105 93.999 -167s26 -147 26 -255zM702.001 550.999c0 64 -3.16699 113.5 -9.5 148.5
s-19.5 61.833 -39.5 80.5c-20 20.667 -50 31 -90 31c-39.333 0 -69.333 -10.333 -90 -31c-20 -20 -33.167 -48.5 -39.5 -85.5s-9.5 -84.833 -9.5 -143.5s3.16699 -106.167 9.5 -142.5s19.5 -65.166 39.5 -86.499c20.667 -20.667 50.667 -31 90 -31c40 0 70 10.167 90 30.5
s33.167 47.666 39.5 81.999s9.5 83.5 9.5 147.5zM971.001 1249h-246l-162 170l-162 -170h-246l279 367h258z" />
    <glyph glyph-name="otilde" unicode="&#xf5;" horiz-adv-x="1126" 
d="M1038 551c0 -108.667 -8.66602 -193.835 -25.999 -255.502s-48.666 -117.167 -93.999 -166.5c-88.667 -94 -207 -141 -355 -141c-148.667 0 -266.667 47 -354 141c-30 32 -54 67 -72 105s-30.667 81.5 -38 130.5s-11 111.167 -11 186.5c0 74.667 3.66699 136.5 11 185.5
s20 92.333 38 130s42 73.167 72 106.5c38.667 40.667 87 74.334 145 101.001s127.667 40 209 40s151.166 -13.167 209.499 -39.5s106.833 -60.166 145.5 -101.499c45.333 -49.333 76.666 -105 93.999 -167s26 -147 26 -255zM702.001 550.999c0 64 -3.16699 113.5 -9.5 148.5
s-19.5 61.833 -39.5 80.5c-20 20.667 -50 31 -90 31c-39.333 0 -69.333 -10.333 -90 -31c-20 -20 -33.167 -48.5 -39.5 -85.5s-9.5 -84.833 -9.5 -143.5s3.16699 -106.167 9.5 -142.5s19.5 -65.166 39.5 -86.499c20.667 -20.667 50.667 -31 90 -31c40 0 70 10.167 90 30.5
s33.167 47.666 39.5 81.999s9.5 83.5 9.5 147.5zM958.001 1399c-44.667 -44.667 -86 -77.334 -124 -98.001s-80.667 -31 -128 -31c-32 0 -59.667 2.83301 -83 8.5s-51 17.834 -83 36.501c-40 23.333 -78 35 -114 35c-20.667 0 -39.667 -3.33301 -57 -10s-38 -22 -62 -46
l-139 142c46 46 87.333 79 124 99s78.667 30 126 30c59.333 0 114.333 -15 165 -45c39.333 -23.333 77 -35 113 -35c20.667 0 40.167 3.66699 58.5 11s38.5 22 60.5 44z" />
    <glyph glyph-name="odieresis" unicode="&#xf6;" horiz-adv-x="1126" 
d="M1038 551c0 -108.667 -8.66602 -193.835 -25.999 -255.502s-48.666 -117.167 -93.999 -166.5c-88.667 -94 -207 -141 -355 -141c-148.667 0 -266.667 47 -354 141c-30 32 -54 67 -72 105s-30.667 81.5 -38 130.5s-11 111.167 -11 186.5c0 74.667 3.66699 136.5 11 185.5
s20 92.333 38 130s42 73.167 72 106.5c38.667 40.667 87 74.334 145 101.001s127.667 40 209 40s151.166 -13.167 209.499 -39.5s106.833 -60.166 145.5 -101.499c45.333 -49.333 76.666 -105 93.999 -167s26 -147 26 -255zM702.001 550.999c0 64 -3.16699 113.5 -9.5 148.5
s-19.5 61.833 -39.5 80.5c-20 20.667 -50 31 -90 31c-39.333 0 -69.333 -10.333 -90 -31c-20 -20 -33.167 -48.5 -39.5 -85.5s-9.5 -84.833 -9.5 -143.5s3.16699 -106.167 9.5 -142.5s19.5 -65.166 39.5 -86.499c20.667 -20.667 50.667 -31 90 -31c40 0 70 10.167 90 30.5
s33.167 47.666 39.5 81.999s9.5 83.5 9.5 147.5zM932.001 1247h-275v297h275v-297zM469.001 1247h-275v297h275v-297z" />
    <glyph glyph-name="divide" unicode="&#xf7;" 
d="M729 889h-319v319h319v-319zM1051 446h-963v316h963v-316zM729 0h-319v319h319v-319z" />
    <glyph glyph-name="oslash" unicode="&#xf8;" horiz-adv-x="1126" 
d="M1038 551c0 -108.667 -8.66797 -193.834 -26.001 -255.501s-48.666 -117.167 -93.999 -166.5c-88.667 -94 -207 -141 -355 -141c-78.667 0 -149.667 13.667 -213 41l-69 -119h-191l125 213c-54.667 58 -89.5 118.833 -104.5 182.5s-22.5 145.5 -22.5 245.5
c0 74.667 3.66699 136.5 11 185.5s20 92.333 38 130s42 73.167 72 106.5c38.667 40.667 87 74.334 145 101.001s127.667 40 209 40c80 0 151 -13.667 213 -41l70 119h190l-125 -213c38 -39.333 66 -80.833 84 -124.5s29.667 -89 35 -136s8 -102.833 8 -167.5zM632.999 797
c-18 9.33301 -41.333 14 -70 14c-39.333 0 -69.333 -10.333 -90 -31c-20 -20 -33.167 -48.5 -39.5 -85.5s-9.5 -84.833 -9.5 -143.5c0 -49.333 1.33301 -83.333 4 -102zM701.999 551c0 49.333 -1.33301 83.334 -4 102.001l-204 -348c16.667 -9.33301 39.667 -14 69 -14
c40 0 70 10.167 90 30.5s33.167 47.666 39.5 81.999s9.5 83.5 9.5 147.5z" />
    <glyph glyph-name="ugrave" unicode="&#xf9;" horiz-adv-x="1186" 
d="M1059 0l-327.998 0.000976562v90c-32.667 -32.667 -72.334 -57.834 -119.001 -75.501s-92.334 -26.5 -137.001 -26.5c-101.333 0 -184 31.333 -248 94c-42.667 42.667 -71.667 89.167 -87 139.5s-23 108.833 -23 175.5v705h336v-660c0 -55.333 14.5 -94.333 43.5 -117
s59.5 -34 91.5 -34s62.5 11.167 91.5 33.5s43.5 61.5 43.5 117.5v660h336v-1102zM707.002 1249h-203l-242 369h344z" />
    <glyph glyph-name="uacute" unicode="&#xfa;" horiz-adv-x="1186" 
d="M1059 0l-327.998 0.000976562v90c-32.667 -32.667 -72.334 -57.834 -119.001 -75.501s-92.334 -26.5 -137.001 -26.5c-101.333 0 -184 31.333 -248 94c-42.667 42.667 -71.667 89.167 -87 139.5s-23 108.833 -23 175.5v705h336v-660c0 -55.333 14.5 -94.333 43.5 -117
s59.5 -34 91.5 -34s62.5 11.167 91.5 33.5s43.5 61.5 43.5 117.5v660h336v-1102zM914.002 1618l-242 -369h-203l101 369h344z" />
    <glyph glyph-name="ucircumflex" unicode="&#xfb;" horiz-adv-x="1186" 
d="M1059 0l-327.998 0.000976562v90c-32.667 -32.667 -72.334 -57.834 -119.001 -75.501s-92.334 -26.5 -137.001 -26.5c-101.333 0 -184 31.333 -248 94c-42.667 42.667 -71.667 89.167 -87 139.5s-23 108.833 -23 175.5v705h336v-660c0 -55.333 14.5 -94.333 43.5 -117
s59.5 -34 91.5 -34s62.5 11.167 91.5 33.5s43.5 61.5 43.5 117.5v660h336v-1102zM996.002 1249h-246l-162 170l-162 -170h-246l279 367h258z" />
    <glyph glyph-name="udieresis" unicode="&#xfc;" horiz-adv-x="1186" 
d="M1059 0l-327.998 0.000976562v90c-32.667 -32.667 -72.334 -57.834 -119.001 -75.501s-92.334 -26.5 -137.001 -26.5c-101.333 0 -184 31.333 -248 94c-42.667 42.667 -71.667 89.167 -87 139.5s-23 108.833 -23 175.5v705h336v-660c0 -55.333 14.5 -94.333 43.5 -117
s59.5 -34 91.5 -34s62.5 11.167 91.5 33.5s43.5 61.5 43.5 117.5v660h336v-1102zM957.002 1247h-275v297h275v-297zM494.002 1247h-275v297h275v-297z" />
    <glyph glyph-name="ydieresis" unicode="&#xff;" horiz-adv-x="1053" 
d="M1069 1102l-457.002 -1233c-21.333 -61.333 -50 -109.666 -86 -144.999c-57.333 -62 -139.666 -93 -246.999 -93h-127v303h71c31.333 0 55.333 5.66699 72 17s30.334 33 41.001 65l31 93l-367 993h352l187 -572l178 572h352zM894.998 1247h-275v297h275v-297z
M431.998 1247h-275v297h275v-297z" />
    <glyph glyph-name="dotlessi" unicode="&#x131;" horiz-adv-x="590" 
d="M463 0h-336v1102h336v-1102z" />
    <glyph glyph-name="OE" unicode="&#x152;" horiz-adv-x="1950" 
d="M1843 0l-991.002 0.00195312v53c-26.667 -24.667 -58.667 -41.667 -96 -51s-75 -14 -113 -14c-60 0 -112.667 5.5 -158 16.5s-87.166 27.833 -125.499 50.5s-75.5 52 -111.5 88c-36 36.667 -64.167 77.334 -84.5 122.001s-34.833 91.334 -43.5 140.001
s-14.167 96.667 -16.5 144s-3.5 107.333 -3.5 180c0 73.333 1.16699 133.666 3.5 180.999s7.83301 95.166 16.5 143.499s23.334 95.166 44.001 140.499s48.667 85.666 84 120.999c54 54 111.667 93.333 173 118s136 37 224 37c91.333 0 160.333 -21.667 207 -65v53h991v-319
h-633v-244h541v-320h-541v-256h633v-319zM851.998 729.002c0 124 -4.16602 208.664 -12.499 253.997s-21.833 80 -40.5 104c-13.333 18.667 -32.833 34 -58.5 46s-54.167 18 -85.5 18c-30.667 0 -58.334 -5.83301 -83.001 -17.5s-44.667 -27.167 -60 -46.5
c-12 -15.333 -21.833 -34.166 -29.5 -56.499s-13.5 -56.666 -17.5 -102.999s-6 -112.5 -6 -198.5c0 -85.333 2 -151.166 6 -197.499s9.83301 -80.5 17.5 -102.5s17.5 -40.667 29.5 -56c34 -44 81.667 -66 143 -66c62 0 110 22 144 66c18.667 26 32.167 60.833 40.5 104.5
s12.5 127.5 12.5 251.5z" />
    <glyph glyph-name="oe" unicode="&#x153;" horiz-adv-x="1769" 
d="M1692 442l-659.998 0.000976562c0 -47.333 17.667 -87.833 53 -121.5s82.666 -50.5 141.999 -50.5c54.667 0 98.167 7.33301 130.5 22s64.5 38 96.5 70l201 -200c-60.667 -60.667 -122.5 -104.834 -185.5 -132.501s-143.833 -41.5 -242.5 -41.5
c-150 0 -266.667 34 -350 102c-84 -68 -188.667 -102 -314 -102c-148.667 0 -266.667 47 -354 141c-30 32 -54 67 -72 105s-30.667 81.5 -38 130.5s-11 111.167 -11 186.5c0 74.667 3.66699 136.5 11 185.5s20 92.333 38 130s42 73.167 72 106.5
c38.667 40.667 87 74.334 145 101.001s127.667 40 209 40c127.333 0 234 -36 320 -108c83.333 72 187.666 108 312.999 108c103.333 0 192.5 -23 267.5 -69s131.833 -108.333 170.5 -187s58 -167.334 58 -266.001v-150zM1360 666.001
c0 32.667 -6.3291 61.334 -18.9961 86.001c-10.667 25.333 -28.334 46 -53.001 62s-55.334 24 -92.001 24s-67.334 -8 -92.001 -24s-42.334 -36.667 -53.001 -62c-12.667 -24.667 -19 -53.334 -19 -86.001h328zM702.006 551.001c0 64 -3.16699 113.5 -9.5 148.5
s-19.5 61.833 -39.5 80.5c-20 20.667 -50 31 -90 31c-39.333 0 -69.333 -10.333 -90 -31c-20 -20 -33.167 -48.5 -39.5 -85.5s-9.5 -84.833 -9.5 -143.5s3.16699 -106.167 9.5 -142.5s19.5 -65.166 39.5 -86.499c20.667 -20.667 50.667 -31 90 -31c40 0 70 10.167 90 30.5
s33.167 47.666 39.5 81.999s9.5 83.5 9.5 147.5z" />
    <glyph glyph-name="Ydieresis" unicode="&#x178;" horiz-adv-x="1239" 
d="M1239 1458l-440 -864v-594h-359v594l-440 864h391l230 -524l227 524h391zM987 1599h-275v297h275v-297zM524 1599h-275v297h275v-297z" />
    <glyph glyph-name="florin" unicode="&#x192;" horiz-adv-x="903" 
d="M842 1198h-164c-45.333 0 -72 -22.667 -80 -68l-53 -303h184v-258h-229l-164 -925h-336l164 925h-101v258h146l57 328c10 54 31.333 105.833 64 155.5s77.667 90.5 135 122.5s124.333 48 201 48l176 -2v-281z" />
    <glyph glyph-name="circumflex" unicode="&#x2c6;" horiz-adv-x="1024" 
d="M920 1249h-246l-162 170l-162 -170h-246l279 367h258z" />
    <glyph glyph-name="caron" unicode="&#x2c7;" horiz-adv-x="1024" 
d="M920 1616l-279 -367h-258l-279 367h246l162 -170l162 170h246z" />
    <glyph glyph-name="breve" unicode="&#x2d8;" horiz-adv-x="1024" 
d="M848 1536c-2.66699 -111.333 -36.499 -192.833 -101.499 -244.5s-143.167 -77.5 -234.5 -77.5c-90 0 -167.833 26.167 -233.5 78.5s-99.834 133.5 -102.501 243.5h217c5.33301 -64 45 -96 119 -96s113.667 32 119 96h217z" />
    <glyph glyph-name="dotaccent" unicode="&#x2d9;" horiz-adv-x="1024" 
d="M680 1214h-336v256h336v-256z" />
    <glyph glyph-name="ring" unicode="&#x2da;" horiz-adv-x="1024" 
d="M795 1497c0 -50 -12.666 -97.0029 -37.999 -141.003s-59.833 -78.667 -103.5 -104s-90.834 -38 -141.501 -38c-38 0 -74 7.33301 -108 22s-64.333 35.334 -91 62.001s-47.334 57 -62.001 91s-22 70 -22 108c0 50 12.667 97 38 141s59.833 78.667 103.5 104
s90.834 38 141.501 38c50 0 97 -12.667 141 -38s78.667 -59.666 104 -102.999s38 -90.666 38 -141.999zM618.001 1497c0 28.667 -10.333 53.667 -31 75s-45.667 32 -75 32s-54.333 -10.667 -75 -32s-31 -46.333 -31 -75c0 -29.333 10.333 -54.333 31 -75s45.667 -31 75 -31
s54.333 10.333 75 31s31 45.667 31 75z" />
    <glyph glyph-name="ogonek" unicode="&#x2db;" horiz-adv-x="1024" 
d="M698 -410h-299l-73 295h235z" />
    <glyph glyph-name="tilde" unicode="&#x2dc;" horiz-adv-x="1024" 
d="M907 1399c-44.667 -44.667 -86 -77.334 -124 -98.001s-80.667 -31 -128 -31c-32 0 -59.667 2.83301 -83 8.5s-51 17.834 -83 36.501c-40 23.333 -78 35 -114 35c-20.667 0 -39.667 -3.33301 -57 -10s-38 -22 -62 -46l-139 142c46 46 87.333 79 124 99s78.667 30 126 30
c59.333 0 114.333 -15 165 -45c39.333 -23.333 77 -35 113 -35c20.667 0 40.167 3.66699 58.5 11s38.5 22 60.5 44z" />
    <glyph glyph-name="hungarumlaut" unicode="&#x2dd;" horiz-adv-x="1024" 
d="M973 1618l-242 -369h-203l101 369h344zM496 1618l-240 -369h-205l101 369h344z" />
    <glyph glyph-name="pi" unicode="&#x3c0;" horiz-adv-x="1212" 
d="M1085 0h-335v782h-287v-782h-336v1102h958v-1102z" />
    <glyph glyph-name="emdash" unicode="&#x2013;" 
d="M1038 446h-938v316h938v-316z" />
    <glyph glyph-name="endash" unicode="&#x2014;" horiz-adv-x="2238" 
d="M2138 451h-2038v323h2038v-323z" />
    <glyph glyph-name="quoteleft" unicode="&#x2018;" horiz-adv-x="569" 
d="M453 1159h-336v299l336 246v-545z" />
    <glyph glyph-name="quoteright" unicode="&#x2019;" horiz-adv-x="569" 
d="M453 1157l-336 -242v543h336v-301z" />
    <glyph glyph-name="quotesinglbase" unicode="&#x201a;" horiz-adv-x="565" 
d="M453 0l-336 -242v543h336v-301z" />
    <glyph glyph-name="quotedblleft" unicode="&#x201c;" horiz-adv-x="1047" 
d="M930 1159h-336v299l336 246v-545zM451 1159h-334v299l334 246v-545z" />
    <glyph glyph-name="quotedblright" unicode="&#x201d;" horiz-adv-x="1047" 
d="M930 1157l-336 -242v543h336v-301zM451 1157l-334 -242v543h334v-301z" />
    <glyph glyph-name="quotedblbase" unicode="&#x201e;" horiz-adv-x="1053" 
d="M930 0l-336 -242v543h336v-301zM451 0l-334 -242v543h334v-301z" />
    <glyph glyph-name="dagger" unicode="&#x2020;" horiz-adv-x="1155" 
d="M1059 799h-314v-799h-335v799h-314v303h314v356h335v-356h314v-303z" />
    <glyph glyph-name="daggerdbl" unicode="&#x2021;" horiz-adv-x="1155" 
d="M1059 0h-314v-356h-335v356h-314v303h314v496h-314v303h314v356h335v-356h314v-303h-314v-496h314v-303z" />
    <glyph glyph-name="bullet" unicode="&#x2022;" horiz-adv-x="963" 
d="M815 684c0 -60 -14.998 -115.831 -44.998 -167.498s-70.833 -92.334 -122.5 -122.001s-107.167 -44.5 -166.5 -44.5c-44 0 -86.5 8.83301 -127.5 26.5s-76.833 41.834 -107.5 72.501s-54.834 66.5 -72.501 107.5s-26.5 83.5 -26.5 127.5s8.83301 86.833 26.5 128.5
s41.667 77.667 72 108s65.666 54.166 105.999 71.499s83.5 26 129.5 26c59.333 0 114.833 -14.833 166.5 -44.5s92.5 -70.334 122.5 -122.001s45 -107.5 45 -167.5z" />
    <glyph glyph-name="ellipsis" unicode="&#x2026;" horiz-adv-x="1841" 
d="M1724 0h-348v348h348v-348zM1094 0h-349v348h349v-348zM465 0h-348v348h348v-348z" />
    <glyph glyph-name="perthousand" unicode="&#x2030;" horiz-adv-x="2517" 
d="M2425 272c0 -62 -14.167 -114.5 -42.5 -157.5s-66.166 -74.833 -113.5 -95.5c-47.333 -20.667 -98.333 -31 -153 -31c-55.333 0 -106.666 10.333 -153.999 31s-85.166 52.5 -113.499 95.5s-42.5 95.5 -42.5 157.5v195c0 62.667 14.167 115.5 42.5 158.5
s66.166 74.833 113.499 95.5s98.666 31 153.999 31c54.667 0 105.667 -10.333 153 -31s85.166 -52.5 113.5 -95.5c28.333 -43 42.5 -95.833 42.5 -158.5v-195zM1663 272c0 -62 -14 -114.332 -42 -156.999s-65.667 -74.5 -113 -95.5s-98.666 -31.5 -153.999 -31.5
s-106.666 10.333 -153.999 31s-85.166 52.5 -113.499 95.5s-42.5 95.5 -42.5 157.5v195c0 62.667 14.167 115.5 42.5 158.5s66.166 74.833 113.499 95.5s98.666 31 153.999 31s106.666 -10.5 153.999 -31.5s85 -52.833 113 -95.5s42 -95.334 42 -158.001v-195zM1354 1458
l-695 -1458h-258l695 1458h258zM711 991.001c0 -62 -14.167 -114.5 -42.5 -157.5s-66.166 -74.833 -113.499 -95.5s-98.666 -31 -153.999 -31c-54.667 0 -105.667 10.333 -153 31s-85.166 52.5 -113.499 95.5s-42.5 95.5 -42.5 157.5v195c0 62 14.167 114.5 42.5 157.5
s66.166 74.833 113.499 95.5s98.333 31 153 31c55.333 0 106.666 -10.333 153.999 -31s85.166 -52.5 113.499 -95.5s42.5 -95.5 42.5 -157.5v-195zM2187 281.001v178c0 53.333 -23.667 80 -71 80c-48 0 -72 -26.667 -72 -80v-178c0 -53.333 24 -80 72 -80
c47.333 0 71 26.667 71 80zM1425 281.001v178c0 53.333 -23.667 80 -71 80c-48 0 -72 -26.667 -72 -80v-178c0 -53.333 24 -80 72 -80c47.333 0 71 26.667 71 80zM473 999.001v179c0 52.667 -24 79 -72 79c-47.333 0 -71 -26.333 -71 -79v-179c0 -52.667 23.667 -79 71 -79
c48 0 72 26.333 72 79z" />
    <glyph glyph-name="guilsinglleft" unicode="&#x2039;" horiz-adv-x="743" 
d="M621 18l-560 555l560 553v-395l-162 -158l162 -159v-396z" />
    <glyph glyph-name="guilsinglright" unicode="&#x203a;" horiz-adv-x="743" 
d="M682 573l-559 -555v396l164 159l-164 158v395z" />
    <glyph glyph-name="fraction" unicode="&#x2044;" horiz-adv-x="453" 
d="M702 1458l-694 -1458h-258l694 1458h258z" />
    <glyph glyph-name="trademark" unicode="&#x2122;" horiz-adv-x="1993" 
d="M1855 584h-239v448l-137 -268h-205l-137 268v-448h-240v874h240l239 -430l240 430h239v-874zM772 1245h-215v-661h-238v661h-215v213h668v-213z" />
    <glyph glyph-name="Omega" unicode="&#x2126;" horiz-adv-x="1311" 
d="M1210 0l-477.001 0.00195312v279c28 13.333 50 30.333 66 51c18 24.667 31.333 62.5 40 113.5s13 139.5 13 265.5c0 125.333 -4.33301 213.166 -13 263.499s-22 87.166 -40 110.499c-14 19.333 -33.667 35.5 -59 48.5s-53.666 19.5 -84.999 19.5
c-30.667 0 -58.167 -6.33301 -82.5 -19s-44.5 -29 -60.5 -49c-11.333 -14.667 -21 -34.5 -29 -59.5s-14 -62.167 -18 -111.5s-6 -117 -6 -203c0 -124 4.16699 -211.667 12.5 -263s21.833 -90 40.5 -116c14.667 -20 36.667 -37 66 -51v-279h-478v319h93
c-21.333 26.667 -38.666 59.667 -51.999 99c-27.333 84 -41 187.667 -41 311v49c0 125.333 8.66699 228.833 26 310.5s58 154.5 122 218.5c55.333 55.333 115.166 96.333 179.499 123s140.166 40 227.499 40c88 0 164.333 -13.5 229 -40.5s124.334 -67.833 179.001 -122.5
c44 -44 76.667 -93.5 98 -148.5s34.833 -111.833 40.5 -170.5s8.5 -128.667 8.5 -210v-49c0 -126 -13.667 -229.667 -41 -311c-11.333 -38 -28.333 -71 -51 -99h92v-319z" />
    <glyph glyph-name="partialdiff" unicode="&#x2202;" horiz-adv-x="1149" 
d="M1022 530c0 -104.667 -8.49902 -186.834 -25.499 -246.501s-47.5 -113.167 -91.5 -160.5c-83.333 -90 -197.333 -135 -342 -135c-143.333 0 -257.333 45 -342 135c-44 47.333 -74.5 100.833 -91.5 160.5s-25.5 141.834 -25.5 246.501s8.5 187.5 25.5 248.5
s47.5 114.833 91.5 161.5c83.333 88.667 194.666 133 333.999 133c53.333 0 96.333 -8 129 -24v2c0 12 -5.16699 28.667 -15.5 50s-28.666 41.166 -54.999 59.499s-61.5 27.5 -105.5 27.5c-78.667 0 -141.667 -23.333 -189 -70l-208 209c52 53.333 110.667 90.5 176 111.5
s144.333 31.5 237 31.5c83.333 0 156.333 -12.5 219 -37.5s114.667 -60.167 156 -105.5s72.166 -99.166 92.499 -161.499s30.5 -130.5 30.5 -204.5v-431zM686.001 530c0 58.667 -2.83203 104.333 -8.49902 137s-17.167 57.334 -34.5 74.001c-18 19.333 -44.667 29 -80 29
c-34 0 -60.667 -9.66699 -80 -29c-17.333 -17.333 -28.833 -42.166 -34.5 -74.499s-8.5 -77.833 -8.5 -136.5c0 -42 1 -74.667 3 -98s6 -44.833 12 -64.5s15.333 -35.834 28 -48.501c20 -18.667 46.667 -28 80 -28c34.667 0 61.167 9.16699 79.5 27.5
s30.166 43.666 35.499 75.999s8 77.5 8 135.5z" />
    <glyph glyph-name="Delta" unicode="&#x2206;" horiz-adv-x="1337" 
d="M1337 0h-1337l530 1458h277zM868 299l-190 606l-203 -606h393z" />
    <glyph glyph-name="product" unicode="&#x220f;" horiz-adv-x="1393" 
d="M1245 -356h-358v1595h-381v-1595h-359v1912h1098v-1912z" />
    <glyph glyph-name="summation" unicode="&#x2211;" horiz-adv-x="1133" 
d="M1071 -360h-1010v278l371 700l-362 660v278h991v-319h-569l241 -459v-334l-258 -485h596v-319z" />
    <glyph glyph-name="periodcentered" unicode="&#x2219;" horiz-adv-x="602" 
d="M485 420h-368v368h368v-368z" />
    <glyph glyph-name="radical" unicode="&#x221a;" horiz-adv-x="1262" 
d="M1200 1139h-192l-377 -1139h-266l-365 1102h362l138 -459l241 815h459v-319z" />
    <glyph glyph-name="infinity" unicode="&#x221e;" horiz-adv-x="1794" 
d="M1698 604c0 -57.333 -9.16895 -112.332 -27.502 -164.999s-45 -97.834 -80 -135.501s-79.5 -67.334 -133.5 -89.001s-116.333 -32.5 -187 -32.5c-70 0 -137 16.333 -201 49s-121.333 76.334 -172 131.001c-50.667 -54.667 -108 -98.334 -172 -131.001s-131 -49 -201 -49
c-92 0 -170.333 18.5 -235 55.5s-113 87.167 -145 150.5s-48 135.333 -48 216c0 80 16 151.833 48 215.5s80.333 114 145 151s143 55.5 235 55.5c72 0 139.5 -16.333 202.5 -49s119.833 -76.334 170.5 -131.001c50.667 54.667 107.5 98.334 170.5 131.001s130.5 49 202.5 49
c70.667 0 132.834 -10.5 186.501 -31.5s98.334 -50.667 134.001 -89s62.5 -83.666 80.5 -135.999s27 -107.5 27 -165.5zM1370 594.001c0 32 -9.66699 56.667 -29 74s-42.333 26 -69 26c-25.333 0 -48.333 -8.33301 -69 -25s-45 -41.667 -73 -75
c30 -34.667 54.833 -60 74.5 -76s42.167 -24 67.5 -24c27.333 0 50.5 8.5 69.5 25.5s28.5 41.833 28.5 74.5zM663.998 594.001c-25.333 32 -49 56.667 -71 74s-45.667 26 -71 26c-26.667 0 -49.667 -8.66699 -69 -26s-29 -42 -29 -74c0 -32.667 9.5 -57.5 28.5 -74.5
s42.167 -25.5 69.5 -25.5c25.333 0 48.5 8.5 69.5 25.5s45.167 41.833 72.5 74.5z" />
    <glyph glyph-name="integral" unicode="&#x222b;" horiz-adv-x="1147" 
d="M1004 1212h-113c-94 0 -141 -45 -141 -135v-999c0 -90.667 -19.333 -167.5 -58 -230.5s-92.834 -110.333 -162.501 -142s-149.167 -47.5 -238.5 -47.5h-150v283h113c94 0 141 45 141 135v999c0 90.667 19.333 167.5 58 230.5s92.834 110.333 162.501 142
s149.167 47.5 238.5 47.5h150v-283z" />
    <glyph glyph-name="approxequal" unicode="&#x2248;" horiz-adv-x="1323" 
d="M1262 836c-45.333 -45.333 -87.998 -82.499 -127.998 -111.499s-80.5 -50.5 -121.5 -64.5s-85.5 -21 -133.5 -21c-30.667 0 -59.834 2 -87.501 6s-54.334 11 -80.001 21s-53.834 24.333 -84.501 43c-60 34 -117.333 51 -172 51c-33.333 0 -63.333 -5.5 -90 -16.5
s-57 -33.5 -91 -67.5l-213 213c69.333 69.333 132.5 119.333 189.5 150s120.167 46 189.5 46c50 0 93.333 -4.83301 130 -14.5s77.334 -27.834 122.001 -54.501c58 -34 115.333 -51 172 -51c31.333 0 61 5.5 89 16.5s58.333 33.5 91 67.5zM1262 315.001
c-46.667 -46.667 -89.167 -83.8301 -127.5 -111.497s-78 -48.667 -119 -63s-85.167 -21.5 -132.5 -21.5c-22 0 -45 1.5 -69 4.5s-44.167 6.5 -60.5 10.5s-32.333 9.5 -48 16.5s-40.5 19.5 -74.5 37.5c-59.333 34.667 -116.666 52 -171.999 52
c-32 0 -61.333 -5.33301 -88 -16s-57.334 -33.334 -92.001 -68.001l-218 213c68.667 68.667 132.167 118.5 190.5 149.5s122.5 46.5 192.5 46.5c50 0 93.333 -4.83301 130 -14.5s77.334 -27.834 122.001 -54.501c59.333 -34.667 116.666 -52 171.999 -52
c32 0 61.5 5.66699 88.5 17s57.833 33.666 92.5 66.999z" />
    <glyph glyph-name="notequal" unicode="&#x2260;" horiz-adv-x="1311" 
d="M1210 197h-696l-211 -287l-203 151l99 136h-99v315h330l135 184h-465v316h697l211 286l202 -151l-98 -135h98v-316h-329l-136 -184h465v-315z" />
    <glyph glyph-name="lessequal" unicode="&#x2264;" horiz-adv-x="2103" 
d="M1837 41l-223 -223l-946 946l4 -875l-297 297v1094h1093l297 -297l-874 4z" />
    <glyph glyph-name="greaterequal" unicode="&#x2265;" horiz-adv-x="2103" 
d="M1726 188l-296 -297l6 875l-949 -948l-223 223l948 948l-874 -6l297 297h1091v-1092z" />
    <glyph glyph-name="lozenge" unicode="&#x25ca;" horiz-adv-x="1286" 
d="M1190 684l-547 -754l-547 754l547 754zM811 684l-168 229l-168 -229l168 -229z" />
    <glyph glyph-name="fi" unicode="&#xf001;" horiz-adv-x="1282" 
d="M1155 1214h-336v256h336v-256zM1155 0h-336v1059h336v-1059zM672 801l-184.999 0.000976562v-801h-335v801h-101v258h101v96c0 53.333 12.167 105.166 36.5 155.499s62.166 91.333 113.499 123s115.333 47.5 192 47.5h178v-283h-117c-45.333 0 -68 -22.667 -68 -68v-71
h185v-258z" />
    <glyph glyph-name="fl" unicode="&#xf002;" horiz-adv-x="1380" 
d="M1339 0l-178 0.000976562c-76 0 -139.667 15.833 -191 47.5s-89.333 72.667 -114 123s-37 102.166 -37 155.499v1132h336v-1108c0 -44.667 22.667 -67 68 -67h116v-283zM672 801.001l-184.999 0.000976562v-801h-335v801h-101v258h101v96
c0 53.333 12.167 105.166 36.5 155.499s62.166 91.333 113.499 123s115.333 47.5 192 47.5h178v-283h-117c-45.333 0 -68 -22.667 -68 -68v-71h185v-258z" />
    <glyph glyph-name=".null" horiz-adv-x="0" 
 />
    <glyph glyph-name="nonmarkingreturn" horiz-adv-x="0" 
 />
    </font>
</defs>
</svg>
